#N canvas 92 115 1657 840 10;
#X obj 11 404 cnv 15 679 215 empty empty empty 20 12 0 14 -216236 -66577
0;
#X obj 1387 7 cnv 15 250 133 empty empty empty 20 12 0 14 -216236 -66577
0;
#N canvas 1269 135 1154 1030 sync_in 0;
#X obj 26 45 bng 15 250 50 0 empty empty empty 17 7 0 10 -4034 -13381
-1;
#X obj 46 45 bng 15 250 50 0 empty empty synchro -7 -12 0 12 -204786
-13381 -1;
#X obj 66 45 bng 15 250 50 0 empty empty empty 17 7 0 10 -204786 -13381
-1;
#X obj 86 45 bng 15 250 50 0 empty empty empty 17 7 0 10 -204786 -13381
-1;
#X obj 471 240 bng 15 250 50 0 \$0-initmidi empty init -7 -12 0 12
-258113 -1 -1;
#X obj 130 123 s \$0-scale;
#X text 66 74 scale;
#X msg 572 169 \; user-custom 0 2 2 2 3 3 3 7 7 7 9 10 10 \; off-harmonic
0 0 1 2 3 4 5 6 7 8 9 10 11 \; 1-major 0 0 0 2 2 4 5 5 7 7 9 9 11 \;
2-minor 0 0 0 2 3 3 5 5 7 8 8 10 10 \; 3-dorian 0 0 0 2 3 3 5 5 7 7
9 10 10 \; 4-phrygian 0 0 1 1 3 3 5 5 7 8 8 10 10 \; 5-lydian 0 0 0
2 2 4 4 6 7 7 9 9 11 \; 6-mixolydian 0 0 0 2 2 4 5 5 7 7 9 10 10 \;
7-locrian 0 0 1 1 3 3 5 6 6 8 8 10 10 \; 8-wholetone 0 0 0 2 2 4 4
6 6 8 8 10 10 \; 9-minor7 0 0 0 0 3 3 3 7 7 7 10 10 10 \; 10-dim7 0
0 0 0 3 3 3 6 6 6 9 9 9 \; 11-octatonic2_1 0 0 0 2 3 3 5 6 6 8 9 9
11 \; 12-octatonic1_2 0 0 1 1 3 4 4 6 7 7 9 10 10 \; 13-major_penta
0 0 0 2 2 4 4 7 7 7 9 9 9 \; 14-minor_penta 0 0 0 0 3 3 5 5 5 7 7 10
10 \; 15-invert 0 11 10 9 8 7 6 5 4 3 2 1 0 \;;
#X obj 871 141 table user-custom;
#X obj 871 185 table 1-major;
#X obj 871 207 table 2-minor;
#X obj 871 229 table 3-dorian;
#X obj 871 251 table 4-phrygian;
#X obj 871 273 table 5-lydian;
#X obj 871 295 table 6-mixolydian;
#X obj 871 317 table 7-locrian;
#X obj 871 339 table 8-wholetone;
#X obj 871 361 table 9-minor7;
#X obj 871 383 table 10-dim7;
#X obj 871 449 table 13-major_penta;
#X obj 871 471 table 14-minor_penta;
#X obj 871 493 table 15-invert;
#X obj 871 163 table off-harmonic;
#X obj 871 427 table 12-octatonic1_2;
#X obj 871 405 table 11-octatonic2_1;
#X obj 556 143 loadbang;
#X dropdown 27 93 16 1 0 0 - - -, f 16;
#X msg 523 429 names user-custom off-harmonic 1-major 2-minor 3-dorian
4-phrygian 5-lydian 6-mixolydian 7-locrian 8-wholetone 9-minor7 10-dim7
11-octatonic2_1 12-octatonic1_2 13-major_penta 14-minor_penta 15-invert
;
#X obj 144 44 tgl 15 0 empty empty empty 17 7 0 10 -262144 -1 -1 1
1;
#X msg 332 642 connect \$1;
#X floatatom 329 807 5 0 0 0 - - #0-sync, f 5;
#X floatatom 418 816 5 0 0 0 - - -, f 5;
#X floatatom 372 814 5 0 0 0 - - -, f 5;
#X floatatom 473 780 5 0 0 0 - - -, f 5;
#X obj 387 714 abl_link~ 4 0 4 120;
#X obj 26 577 sel 0 4 8 12;
#X connect 25 0 7 0;
#X connect 25 0 27 0;
#X connect 25 0 4 0;
#X connect 25 0 28 0;
#X connect 26 0 5 0;
#X connect 27 0 26 0;
#X connect 28 0 29 0;
#X connect 29 0 34 0;
#X connect 34 0 30 0;
#X connect 34 0 35 0;
#X connect 34 1 32 0;
#X connect 34 2 31 0;
#X connect 34 3 33 0;
#X connect 35 0 0 0;
#X connect 35 1 1 0;
#X connect 35 2 2 0;
#X connect 35 3 3 0;
#X coords 0 -1 1 1 252 135 2 20 20;
#X restore 1386 6 pd sync_in;
#N canvas 187 325 1529 660 SEQ3 0;
#X obj 343 327 select 0 1 2 3 4 5 6 7 8 9 10 11 12 13 14 15;
#X obj 288 394 spigot;
#X obj 255 368 spigot;
#X obj 354 394 spigot;
#X obj 321 368 spigot;
#X obj 420 394 spigot;
#X obj 387 368 spigot;
#X obj 486 394 spigot;
#X obj 453 368 spigot;
#X obj 552 394 spigot;
#X obj 519 368 spigot;
#X obj 618 394 spigot;
#X obj 585 368 spigot;
#X obj 684 394 spigot;
#X obj 651 368 spigot;
#X obj 750 394 spigot;
#X obj 717 368 spigot;
#X obj 38 98 mod 16;
#X floatatom 36 11 5 0 0 0 - #0-sync -, f 5;
#X obj 21 279 mod 16;
#X obj 323 529 + 1;
#X obj 384 529 f;
#X obj 1052 115 select 0 1 2 3 4 5 6 7 8 9 10 11 12 13 14 15;
#X obj 954 166 f;
#X obj 987 166 f;
#X obj 1020 166 f;
#X obj 1053 166 f;
#X obj 1086 166 f;
#X obj 1119 166 f;
#X obj 1152 166 f;
#X obj 1185 166 f;
#X obj 1218 166 f;
#X obj 1251 166 f;
#X obj 1284 166 f;
#X obj 1317 166 f;
#X obj 1350 166 f;
#X obj 1383 166 f;
#X obj 1416 166 f;
#X floatatom 1183 246 5 0 0 0 - - #0-shift1, f 5;
#X obj 207 125 bng 15 250 50 0 empty empty Reset -42 8 0 10 -260097
-1 -1;
#X obj 206 61 nbx 2 14 1 16 0 1 empty empty Steps -38 7 1 11 -204800
-1 -1 16 256 0;
#X obj 208 179 nbx 2 14 1 16 0 1 empty empty Steps -38 7 1 11 -204800
-1 -1 8 256 0;
#X msg 204 251 0;
#X obj 34 231 - 1;
#X obj 183 97 loadbang;
#X obj 921 166 f;
#X obj 25 122 select 0;
#X text 124 6 Master Sequencer;
#X obj 253 7 cnv 15 538 200 empty empty empty 20 12 0 14 -132949 -66577
0;
#X obj 258 47 hradio 33 1 0 16 empty empty empty 0 -8 0 10 -261682
-13381 -1 12;
#X obj 259 108 vsl 30 49 -24 24 0 0 empty empty empty 0 -9 0 10 -232576
-1 -1 2400 1;
#X obj 292 108 vsl 30 49 -24 24 0 0 empty empty empty 0 -9 0 10 -232576
-1 -1 2400 1;
#X obj 325 108 vsl 30 49 -24 24 0 0 empty empty empty 0 -9 0 10 -232576
-1 -1 2400 1;
#X obj 358 108 vsl 30 49 -24 24 0 0 empty empty empty 0 -9 0 10 -232576
-1 -1 2400 1;
#X obj 391 108 vsl 30 49 -24 24 0 0 empty empty empty 0 -9 0 10 -203904
-1 -1 2400 1;
#X obj 424 108 vsl 30 49 -24 24 0 0 empty empty empty 0 -9 0 10 -203904
-1 -1 2400 1;
#X obj 457 108 vsl 30 49 -24 24 0 0 empty empty empty 0 -9 0 10 -203904
-1 -1 2400 1;
#X obj 490 108 vsl 30 49 -24 24 0 0 empty empty empty 0 -9 0 10 -203904
-1 -1 2400 1;
#X obj 523 108 vsl 30 49 -24 24 0 0 empty empty empty 0 -9 0 10 -232576
-1 -1 2400 1;
#X obj 556 108 vsl 30 49 -24 24 0 0 empty empty empty 0 -9 0 10 -232576
-1 -1 2400 1;
#X obj 589 108 vsl 30 49 -24 24 0 0 empty empty empty 0 -9 0 10 -232576
-1 -1 2400 1;
#X obj 622 108 vsl 30 49 -24 24 0 0 empty empty empty 0 -9 0 10 -232576
-1 -1 2400 1;
#X obj 655 108 vsl 30 49 -24 24 0 0 empty empty empty 0 -9 0 10 -203904
-1 -1 2400 1;
#X obj 688 108 vsl 30 49 -24 24 0 0 empty empty empty 0 -9 0 10 -203904
-1 -1 2400 1;
#X obj 721 108 vsl 30 49 -24 24 0 0 empty empty empty 0 -9 0 10 -203904
-1 -1 2400 1;
#X obj 754 108 vsl 30 49 -24 24 0 0 empty empty empty 0 -9 0 10 -203904
-1 -1 2400 1;
#X obj 292 13 tgl 30 0 empty empty empty 17 7 0 10 -262144 -1 -1 0
1;
#X obj 259 13 tgl 30 0 empty empty empty 17 7 0 10 -262144 -1 -1 0
1;
#X obj 358 13 tgl 30 0 empty empty empty 17 7 0 10 -262144 -1 -1 0
1;
#X obj 325 13 tgl 30 0 empty empty empty 17 7 0 10 -262144 -1 -1 0
1;
#X obj 424 13 tgl 30 0 empty empty empty 17 7 0 10 -262144 -1 -1 0
1;
#X obj 391 13 tgl 30 0 empty empty empty 17 7 0 10 -262144 -1 -1 0
1;
#X obj 490 13 tgl 30 0 empty empty empty 17 7 0 10 -262144 -1 -1 0
1;
#X obj 457 13 tgl 30 0 empty empty empty 17 7 0 10 -262144 -1 -1 0
1;
#X obj 556 13 tgl 30 0 empty empty empty 17 7 0 10 -262144 -1 -1 0
1;
#X obj 523 13 tgl 30 0 empty empty empty 17 7 0 10 -262144 -1 -1 0
1;
#X obj 622 13 tgl 30 0 empty empty empty 17 7 0 10 -262144 -1 -1 0
1;
#X obj 589 13 tgl 30 0 empty empty empty 17 7 0 10 -262144 -1 -1 0
1;
#X obj 688 13 tgl 30 0 empty empty empty 17 7 0 10 -262144 -1 -1 0
1;
#X obj 655 13 tgl 30 0 empty empty empty 17 7 0 10 -262144 -1 -1 0
1;
#X obj 754 13 tgl 30 0 empty empty empty 17 7 0 10 -262144 -1 -1 0
1;
#X obj 721 13 tgl 30 0 empty empty empty 17 7 0 10 -262144 -1 -1 0
1;
#X floatatom 295 87 4 0 0 0 - - -, f 4;
#X floatatom 328 87 4 0 0 0 - - -, f 4;
#X floatatom 361 87 4 0 0 0 - - -, f 4;
#X floatatom 394 87 4 0 0 0 - - -, f 4;
#X floatatom 427 87 4 0 0 0 - - -, f 4;
#X floatatom 460 87 4 0 0 0 - - -, f 4;
#X floatatom 493 87 4 0 0 0 - - -, f 4;
#X floatatom 526 87 4 0 0 0 - - -, f 4;
#X floatatom 560 87 4 0 0 0 - - -, f 4;
#X floatatom 592 87 4 0 0 0 - - -, f 4;
#X floatatom 625 87 4 0 0 0 - - -, f 4;
#X floatatom 658 87 4 0 0 0 - - -, f 4;
#X floatatom 691 87 4 0 0 0 - - -, f 4;
#X floatatom 724 87 4 0 0 0 - - -, f 4;
#X floatatom 757 87 4 0 0 0 - - -, f 4;
#X floatatom 262 87 4 -24 24 0 - - -, f 4;
#X obj 258 167 hradio 33 1 0 16 empty empty empty 0 -8 0 10 -261682
-13381 -1 0;
#X msg 197 331 0;
#X connect 0 0 2 0;
#X connect 0 1 1 0;
#X connect 0 2 4 0;
#X connect 0 3 3 0;
#X connect 0 4 6 0;
#X connect 0 5 5 0;
#X connect 0 6 8 0;
#X connect 0 7 7 0;
#X connect 0 8 10 0;
#X connect 0 9 9 0;
#X connect 0 10 12 0;
#X connect 0 11 11 0;
#X connect 0 12 14 0;
#X connect 0 13 13 0;
#X connect 0 14 16 0;
#X connect 0 15 15 0;
#X connect 1 0 21 0;
#X connect 2 0 21 0;
#X connect 3 0 21 0;
#X connect 4 0 21 0;
#X connect 5 0 21 0;
#X connect 6 0 21 0;
#X connect 7 0 21 0;
#X connect 8 0 21 0;
#X connect 9 0 21 0;
#X connect 10 0 21 0;
#X connect 11 0 21 0;
#X connect 12 0 21 0;
#X connect 13 0 21 0;
#X connect 14 0 21 0;
#X connect 15 0 21 0;
#X connect 16 0 21 0;
#X connect 17 0 49 0;
#X connect 18 0 17 0;
#X connect 18 0 46 0;
#X connect 19 0 98 0;
#X connect 20 0 21 1;
#X connect 20 0 43 0;
#X connect 21 0 20 0;
#X connect 22 0 45 0;
#X connect 22 1 23 0;
#X connect 22 2 24 0;
#X connect 22 3 25 0;
#X connect 22 4 26 0;
#X connect 22 5 27 0;
#X connect 22 6 28 0;
#X connect 22 7 29 0;
#X connect 22 8 30 0;
#X connect 22 9 31 0;
#X connect 22 10 32 0;
#X connect 22 11 33 0;
#X connect 22 12 34 0;
#X connect 22 13 35 0;
#X connect 22 14 36 0;
#X connect 22 15 37 0;
#X connect 23 0 38 0;
#X connect 24 0 38 0;
#X connect 25 0 38 0;
#X connect 26 0 38 0;
#X connect 27 0 38 0;
#X connect 28 0 38 0;
#X connect 29 0 38 0;
#X connect 30 0 38 0;
#X connect 31 0 38 0;
#X connect 32 0 38 0;
#X connect 33 0 38 0;
#X connect 34 0 38 0;
#X connect 35 0 38 0;
#X connect 36 0 38 0;
#X connect 37 0 38 0;
#X connect 39 0 42 0;
#X connect 40 0 17 1;
#X connect 41 0 19 1;
#X connect 42 0 50 0;
#X connect 42 0 51 0;
#X connect 42 0 52 0;
#X connect 42 0 53 0;
#X connect 42 0 54 0;
#X connect 42 0 55 0;
#X connect 42 0 56 0;
#X connect 42 0 57 0;
#X connect 42 0 58 0;
#X connect 42 0 59 0;
#X connect 42 0 60 0;
#X connect 42 0 61 0;
#X connect 42 0 62 0;
#X connect 42 0 63 0;
#X connect 42 0 64 0;
#X connect 42 0 65 0;
#X connect 43 0 19 0;
#X connect 44 0 39 0;
#X connect 45 0 38 0;
#X connect 46 0 99 0;
#X connect 49 0 0 0;
#X connect 50 0 97 0;
#X connect 50 0 45 1;
#X connect 51 0 82 0;
#X connect 51 0 23 1;
#X connect 52 0 83 0;
#X connect 52 0 24 1;
#X connect 53 0 84 0;
#X connect 53 0 25 1;
#X connect 54 0 85 0;
#X connect 54 0 26 1;
#X connect 55 0 86 0;
#X connect 55 0 27 1;
#X connect 56 0 87 0;
#X connect 56 0 28 1;
#X connect 57 0 88 0;
#X connect 57 0 29 1;
#X connect 58 0 89 0;
#X connect 58 0 30 1;
#X connect 59 0 90 0;
#X connect 59 0 31 1;
#X connect 60 0 91 0;
#X connect 60 0 32 1;
#X connect 61 0 92 0;
#X connect 61 0 33 1;
#X connect 62 0 93 0;
#X connect 62 0 34 1;
#X connect 63 0 94 0;
#X connect 63 0 35 1;
#X connect 64 0 95 0;
#X connect 64 0 36 1;
#X connect 65 0 96 0;
#X connect 65 0 37 1;
#X connect 66 0 1 1;
#X connect 67 0 2 1;
#X connect 68 0 3 1;
#X connect 69 0 4 1;
#X connect 70 0 5 1;
#X connect 71 0 6 1;
#X connect 72 0 7 1;
#X connect 73 0 8 1;
#X connect 74 0 9 1;
#X connect 75 0 10 1;
#X connect 76 0 11 1;
#X connect 77 0 12 1;
#X connect 78 0 13 1;
#X connect 79 0 14 1;
#X connect 80 0 15 1;
#X connect 81 0 16 1;
#X connect 98 0 22 0;
#X connect 99 0 20 0;
#X coords 0 -1 1 1 681 217 2 115 1;
#X restore 10 403 pd SEQ3 Rel;
#X obj 11 7 cnv 15 679 388 empty empty empty 20 12 0 14 -216236 -66577
0;
#X obj 699 7 cnv 15 679 388 empty empty empty 20 12 0 14 -216236 -66577
0;
#X obj 699 404 cnv 15 679 388 empty empty empty 20 12 0 14 -216236
-66577 0;
#N canvas 127 264 1272 789 SEQ1 0;
#X obj 46 35 mod 16;
#X floatatom 36 11 5 0 0 0 - #0-sync -, f 5;
#X obj 24 178 mod 16;
#X obj 206 191 bng 15 250 50 0 empty empty Panic -43 9 0 12 -258113
-1 -1;
#X obj 206 167 bng 15 250 50 0 empty empty Reset_64 -52 8 0 10 -260097
-1 -1;
#X msg 1024 89 64;
#X obj 206 94 bng 15 250 50 0 empty empty random -45 7 1 11 -261682
-1 -1;
#X obj 205 8 nbx 2 14 1 16 0 1 empty empty Midi_Channel -80 8 1 11
-260097 -1 -1 1 256 0;
#X obj 206 61 nbx 2 14 1 16 0 1 empty empty Steps -38 7 1 11 -204800
-1 -1 16 256 0;
#X obj 206 253 nbx 2 14 1 16 0 1 empty empty Steps -38 7 1 11 -204800
-1 -1 16 256 0;
#X obj 206 116 nbx 2 14 1 10 0 1 empty empty Octaves -48 7 1 11 -261682
-1 -1 3 256 0;
#X obj 172 137 hradio 15 1 1 5 empty empty Transp -42 8 1 11 -262144
-1 -1 1;
#X obj 206 32 tgl 15 0 empty empty Slave -35 8 1 11 -262144 -1 -1 0
1;
#X obj 36 62 loadbang;
#X text 210 320 80ms;
#X text 210 335 160ms;
#X text 210 350 240ms;
#X text 210 365 320ms;
#X obj 36 277 loadbang;
#X msg 36 303 1;
#N canvas 1358 546 450 433 panic 0;
#X obj 134 313 ctlout;
#X msg 134 289 123 123 \$1;
#X obj 195 172 until;
#X obj 195 194 f 0;
#X obj 226 194 + 1;
#X obj 195 217 t f b;
#X msg 223 238 0;
#X msg 195 147 128;
#X obj 195 260 noteout \$1;
#X obj 134 123 t f b b f;
#X msg 227 146 0;
#X obj 134 85 \$1;
#X obj 88 31 inlet;
#X obj 172 30 inlet;
#X connect 1 0 0 0;
#X connect 2 0 3 0;
#X connect 3 0 4 0;
#X connect 3 0 5 0;
#X connect 4 0 3 1;
#X connect 5 0 8 0;
#X connect 5 1 6 0;
#X connect 6 0 8 1;
#X connect 7 0 2 0;
#X connect 9 0 1 0;
#X connect 9 1 7 0;
#X connect 9 2 10 0;
#X connect 9 3 8 2;
#X connect 10 0 3 1;
#X connect 11 0 9 0;
#X connect 12 0 11 0;
#X connect 13 0 11 1;
#X restore 36 206 pd panic;
#N canvas 1136 330 781 551 mainsteps 0;
#X obj 185 137 select 0 1 2 3 4 5 6 7 8 9 10 11 12 13 14 15;
#X obj 130 204 spigot;
#X obj 97 178 spigot;
#X obj 196 204 spigot;
#X obj 163 178 spigot;
#X obj 262 204 spigot;
#X obj 229 178 spigot;
#X obj 328 204 spigot;
#X obj 295 178 spigot;
#X obj 394 204 spigot;
#X obj 361 178 spigot;
#X obj 460 204 spigot;
#X obj 427 178 spigot;
#X obj 526 204 spigot;
#X obj 493 178 spigot;
#X obj 592 204 spigot;
#X obj 559 178 spigot;
#X obj 283 360 + 1;
#X obj 343 360 f;
#X obj 124 56 inlet;
#X obj 162 56 inlet;
#X obj 200 56 inlet;
#X obj 238 56 inlet;
#X obj 276 56 inlet;
#X obj 314 56 inlet;
#X obj 352 56 inlet;
#X obj 390 56 inlet;
#X obj 428 56 inlet;
#X obj 466 56 inlet;
#X obj 504 56 inlet;
#X obj 542 56 inlet;
#X obj 580 56 inlet;
#X obj 618 56 inlet;
#X obj 656 56 inlet;
#X obj 694 56 inlet;
#X obj 76 56 inlet;
#X obj 233 435 outlet;
#X floatatom 114 302 5 0 0 0 - #0-sync -, f 5;
#X obj 114 328 select 0;
#X msg 134 357 -1;
#X connect 0 0 2 0;
#X connect 0 1 1 0;
#X connect 0 2 4 0;
#X connect 0 3 3 0;
#X connect 0 4 6 0;
#X connect 0 5 5 0;
#X connect 0 6 8 0;
#X connect 0 7 7 0;
#X connect 0 8 10 0;
#X connect 0 9 9 0;
#X connect 0 10 12 0;
#X connect 0 11 11 0;
#X connect 0 12 14 0;
#X connect 0 13 13 0;
#X connect 0 14 16 0;
#X connect 0 15 15 0;
#X connect 1 0 18 0;
#X connect 2 0 18 0;
#X connect 3 0 18 0;
#X connect 4 0 18 0;
#X connect 5 0 18 0;
#X connect 6 0 18 0;
#X connect 7 0 18 0;
#X connect 8 0 18 0;
#X connect 9 0 18 0;
#X connect 10 0 18 0;
#X connect 11 0 18 0;
#X connect 12 0 18 0;
#X connect 13 0 18 0;
#X connect 14 0 18 0;
#X connect 15 0 18 0;
#X connect 16 0 18 0;
#X connect 17 0 18 1;
#X connect 18 0 17 0;
#X connect 18 0 36 0;
#X connect 19 0 2 1;
#X connect 20 0 1 1;
#X connect 21 0 4 1;
#X connect 22 0 3 1;
#X connect 23 0 6 1;
#X connect 24 0 5 1;
#X connect 25 0 8 1;
#X connect 26 0 7 1;
#X connect 27 0 10 1;
#X connect 28 0 9 1;
#X connect 29 0 12 1;
#X connect 30 0 11 1;
#X connect 31 0 14 1;
#X connect 32 0 13 1;
#X connect 33 0 16 1;
#X connect 34 0 15 1;
#X connect 35 0 0 0;
#X connect 37 0 38 0;
#X connect 38 0 39 0;
#X connect 39 0 18 0;
#X restore 956 45 pd mainsteps;
#N canvas 443 204 917 626 gatetime 0;
#X obj 206 246 + 1;
#X obj 239 246 + 1;
#X obj 272 246 + 1;
#X obj 305 246 + 1;
#X obj 338 246 + 1;
#X obj 371 246 + 1;
#X obj 404 246 + 1;
#X obj 437 246 + 1;
#X obj 470 246 + 1;
#X obj 503 246 + 1;
#X obj 536 246 + 1;
#X obj 569 246 + 1;
#X obj 602 246 + 1;
#X obj 635 246 + 1;
#X obj 668 246 + 1;
#X obj 701 246 + 1;
#X obj 206 275 * 80;
#X obj 239 275 * 80;
#X obj 272 274 * 80;
#X obj 305 275 * 80;
#X obj 338 275 * 80;
#X obj 371 275 * 80;
#X obj 404 275 * 80;
#X obj 437 275 * 80;
#X obj 470 275 * 80;
#X obj 503 275 * 80;
#X obj 536 275 * 80;
#X obj 569 275 * 80;
#X obj 602 275 * 80;
#X obj 635 275 * 80;
#X obj 668 275 * 80;
#X obj 701 275 * 80;
#X obj 209 312 i;
#X obj 239 312 i;
#X obj 270 312 i;
#X obj 304 312 i;
#X obj 336 312 i;
#X obj 369 312 i;
#X obj 402 312 i;
#X obj 435 312 i;
#X obj 468 312 i;
#X obj 501 312 i;
#X obj 534 312 i;
#X obj 567 312 i;
#X obj 600 312 i;
#X obj 633 312 i;
#X obj 666 312 i;
#X obj 699 312 i;
#X obj 799 295 select 0 1 2 3 4 5 6 7 8 9 10 11 12 13 14 15;
#X obj 117 202 inlet;
#X obj 168 202 inlet;
#X obj 206 202 inlet;
#X obj 244 202 inlet;
#X obj 282 202 inlet;
#X obj 320 202 inlet;
#X obj 358 202 inlet;
#X obj 396 202 inlet;
#X obj 434 202 inlet;
#X obj 472 202 inlet;
#X obj 510 202 inlet;
#X obj 548 202 inlet;
#X obj 586 202 inlet;
#X obj 624 202 inlet;
#X obj 662 202 inlet;
#X obj 700 202 inlet;
#X obj 738 202 inlet;
#X obj 442 456 outlet;
#X connect 0 0 16 0;
#X connect 1 0 17 0;
#X connect 2 0 18 0;
#X connect 3 0 19 0;
#X connect 4 0 20 0;
#X connect 5 0 21 0;
#X connect 6 0 22 0;
#X connect 7 0 23 0;
#X connect 8 0 24 0;
#X connect 9 0 25 0;
#X connect 10 0 26 0;
#X connect 11 0 27 0;
#X connect 12 0 28 0;
#X connect 13 0 29 0;
#X connect 14 0 30 0;
#X connect 15 0 31 0;
#X connect 16 0 32 1;
#X connect 17 0 33 1;
#X connect 18 0 34 1;
#X connect 19 0 35 1;
#X connect 20 0 36 1;
#X connect 21 0 37 1;
#X connect 22 0 38 1;
#X connect 23 0 39 1;
#X connect 24 0 40 1;
#X connect 25 0 41 1;
#X connect 26 0 42 1;
#X connect 27 0 43 1;
#X connect 28 0 44 1;
#X connect 29 0 45 1;
#X connect 30 0 46 1;
#X connect 31 0 47 1;
#X connect 32 0 66 0;
#X connect 33 0 66 0;
#X connect 34 0 66 0;
#X connect 35 0 66 0;
#X connect 36 0 66 0;
#X connect 37 0 66 0;
#X connect 38 0 66 0;
#X connect 39 0 66 0;
#X connect 40 0 66 0;
#X connect 41 0 66 0;
#X connect 42 0 66 0;
#X connect 43 0 66 0;
#X connect 44 0 66 0;
#X connect 45 0 66 0;
#X connect 46 0 66 0;
#X connect 47 0 66 0;
#X connect 48 0 32 0;
#X connect 48 1 33 0;
#X connect 48 2 34 0;
#X connect 48 3 35 0;
#X connect 48 4 36 0;
#X connect 48 5 37 0;
#X connect 48 6 38 0;
#X connect 48 7 39 0;
#X connect 48 8 40 0;
#X connect 48 9 41 0;
#X connect 48 10 42 0;
#X connect 48 11 43 0;
#X connect 48 12 44 0;
#X connect 48 13 45 0;
#X connect 48 14 46 0;
#X connect 48 15 47 0;
#X connect 49 0 48 0;
#X connect 50 0 0 0;
#X connect 51 0 1 0;
#X connect 52 0 2 0;
#X connect 53 0 3 0;
#X connect 54 0 4 0;
#X connect 55 0 5 0;
#X connect 56 0 6 0;
#X connect 57 0 7 0;
#X connect 58 0 8 0;
#X connect 59 0 9 0;
#X connect 60 0 10 0;
#X connect 61 0 11 0;
#X connect 62 0 12 0;
#X connect 63 0 13 0;
#X connect 64 0 14 0;
#X connect 65 0 15 0;
#X restore 409 567 pd gatetime;
#N canvas 1267 324 653 722 notegenerator 0;
#X obj 214 547 noteout;
#X obj 311 322 * 12;
#X obj 311 297 int;
#X obj 311 273 / 12;
#X obj 249 285 % 12;
#X obj 396 312 r \$0-scale;
#X msg 396 342 set \$1;
#X obj 187 309 - 2;
#X obj 172 434 moses 0;
#X obj 187 367 + \$1;
#X obj 172 403 moses 127;
#X obj 261 387 tabread off-harmonic;
#X obj 265 422 + \$1;
#X obj 187 332 * 12;
#X obj 239 243 + \$1;
#X obj 343 4 r \$0-shift1;
#X obj 296 176 spigot;
#X obj 39 68 inlet;
#X obj 95 68 inlet;
#X obj 146 68 inlet;
#X obj 196 68 inlet;
#X obj 248 68 inlet;
#X text 31 46 transp;
#X text 88 47 channel;
#X text 142 47 slave;
#X text 193 47 notes;
#X text 241 47 gatetime;
#X obj 155 146 select 0;
#X msg 155 170 0;
#X obj 212 471 makenote 127 40;
#X connect 1 0 12 0;
#X connect 2 0 1 0;
#X connect 3 0 2 0;
#X connect 4 0 11 0;
#X connect 5 0 6 0;
#X connect 6 0 11 0;
#X connect 7 0 13 0;
#X connect 8 1 29 0;
#X connect 9 0 10 0;
#X connect 10 0 8 0;
#X connect 11 0 12 1;
#X connect 12 0 9 0;
#X connect 13 0 9 1;
#X connect 14 0 4 0;
#X connect 14 0 3 0;
#X connect 15 0 16 0;
#X connect 16 0 14 1;
#X connect 17 0 7 0;
#X connect 18 0 0 2;
#X connect 19 0 16 1;
#X connect 19 0 27 0;
#X connect 20 0 14 0;
#X connect 21 0 29 2;
#X connect 27 0 28 0;
#X connect 28 0 14 1;
#X connect 29 0 0 0;
#X connect 29 1 0 1;
#X restore 142 463 pd notegenerator;
#N canvas 374 247 1044 710 randomizer 0;
#X obj 73 315 random 12;
#X obj 73 341 - 6;
#X obj 73 366 * \$1;
#X obj 73 391 + 64;
#X obj 146 315 random 12;
#X obj 146 341 - 6;
#X obj 146 366 * \$1;
#X obj 146 391 + 64;
#X obj 219 315 random 12;
#X obj 219 341 - 6;
#X obj 219 366 * \$1;
#X obj 219 391 + 64;
#X obj 292 315 random 12;
#X obj 292 341 - 6;
#X obj 292 366 * \$1;
#X obj 292 391 + 64;
#X obj 365 315 random 12;
#X obj 365 341 - 6;
#X obj 365 366 * \$1;
#X obj 365 391 + 64;
#X obj 438 315 random 12;
#X obj 438 341 - 6;
#X obj 438 366 * \$1;
#X obj 438 391 + 64;
#X obj 511 315 random 12;
#X obj 511 341 - 6;
#X obj 511 366 * \$1;
#X obj 511 391 + 64;
#X obj 584 315 random 12;
#X obj 584 341 - 6;
#X obj 584 366 * \$1;
#X obj 584 391 + 64;
#X obj 67 433 random 12;
#X obj 67 460 - 6;
#X obj 67 485 * \$1;
#X obj 67 510 + 64;
#X obj 140 433 random 12;
#X obj 140 459 - 6;
#X obj 140 484 * \$1;
#X obj 140 509 + 64;
#X obj 213 433 random 12;
#X obj 213 459 - 6;
#X obj 213 484 * \$1;
#X obj 213 509 + 64;
#X obj 286 433 random 12;
#X obj 286 459 - 6;
#X obj 286 484 * \$1;
#X obj 286 509 + 64;
#X obj 359 433 random 12;
#X obj 359 459 - 6;
#X obj 359 484 * \$1;
#X obj 359 509 + 64;
#X obj 432 433 random 12;
#X obj 432 459 - 6;
#X obj 432 484 * \$1;
#X obj 432 509 + 64;
#X obj 505 433 random 12;
#X obj 505 459 - 6;
#X obj 505 484 * \$1;
#X obj 505 509 + 64;
#X obj 578 433 random 12;
#X obj 578 459 - 6;
#X obj 578 484 * \$1;
#X obj 578 509 + 64;
#X floatatom 124 215 5 1 10 0 octave - -, f 5;
#X obj 97 37 inlet;
#X text 90 18 rndbang;
#X obj 28 37 inlet;
#X text 24 15 rndoctv;
#X obj 550 117 select 0 1 2 3 4 5 6 7 8 9 10 11 12 13 14 15;
#X obj 164 38 inlet;
#X text 163 17 steps;
#X obj 473 228 spigot;
#X obj 440 202 spigot;
#X obj 539 228 spigot;
#X obj 506 202 spigot;
#X obj 605 228 spigot;
#X obj 572 202 spigot;
#X obj 671 228 spigot;
#X obj 638 202 spigot;
#X obj 737 228 spigot;
#X obj 704 202 spigot;
#X obj 803 228 spigot;
#X obj 770 202 spigot;
#X obj 869 228 spigot;
#X obj 836 202 spigot;
#X obj 935 228 spigot;
#X obj 902 202 spigot;
#X obj 238 37 inlet;
#X obj 277 37 inlet;
#X obj 316 37 inlet;
#X obj 355 37 inlet;
#X obj 394 37 inlet;
#X obj 433 37 inlet;
#X obj 472 37 inlet;
#X obj 511 37 inlet;
#X obj 550 37 inlet;
#X obj 589 37 inlet;
#X obj 628 37 inlet;
#X obj 667 37 inlet;
#X obj 706 37 inlet;
#X obj 745 37 inlet;
#X obj 784 37 inlet;
#X obj 823 37 inlet;
#X obj 3 590 outlet;
#X obj 48 590 outlet;
#X obj 93 590 outlet;
#X obj 138 590 outlet;
#X obj 183 590 outlet;
#X obj 228 590 outlet;
#X obj 273 590 outlet;
#X obj 318 590 outlet;
#X obj 363 590 outlet;
#X obj 408 590 outlet;
#X obj 453 590 outlet;
#X obj 498 590 outlet;
#X obj 543 590 outlet;
#X obj 588 590 outlet;
#X obj 633 590 outlet;
#X obj 678 590 outlet;
#X connect 0 0 1 0;
#X connect 1 0 2 0;
#X connect 2 0 3 0;
#X connect 3 0 104 0;
#X connect 4 0 5 0;
#X connect 5 0 6 0;
#X connect 6 0 7 0;
#X connect 7 0 105 0;
#X connect 8 0 9 0;
#X connect 9 0 10 0;
#X connect 10 0 11 0;
#X connect 11 0 106 0;
#X connect 12 0 13 0;
#X connect 13 0 14 0;
#X connect 14 0 15 0;
#X connect 15 0 107 0;
#X connect 16 0 17 0;
#X connect 17 0 18 0;
#X connect 18 0 19 0;
#X connect 19 0 108 0;
#X connect 20 0 21 0;
#X connect 21 0 22 0;
#X connect 22 0 23 0;
#X connect 23 0 109 0;
#X connect 24 0 25 0;
#X connect 25 0 26 0;
#X connect 26 0 27 0;
#X connect 27 0 110 0;
#X connect 28 0 29 0;
#X connect 29 0 30 0;
#X connect 30 0 31 0;
#X connect 31 0 111 0;
#X connect 32 0 33 0;
#X connect 33 0 34 0;
#X connect 34 0 35 0;
#X connect 35 0 112 0;
#X connect 36 0 37 0;
#X connect 37 0 38 0;
#X connect 38 0 39 0;
#X connect 39 0 113 0;
#X connect 40 0 41 0;
#X connect 41 0 42 0;
#X connect 42 0 43 0;
#X connect 43 0 114 0;
#X connect 44 0 45 0;
#X connect 45 0 46 0;
#X connect 46 0 47 0;
#X connect 47 0 115 0;
#X connect 48 0 49 0;
#X connect 49 0 50 0;
#X connect 50 0 51 0;
#X connect 51 0 116 0;
#X connect 52 0 53 0;
#X connect 53 0 54 0;
#X connect 54 0 55 0;
#X connect 55 0 117 0;
#X connect 56 0 57 0;
#X connect 57 0 58 0;
#X connect 58 0 59 0;
#X connect 59 0 118 0;
#X connect 60 0 61 0;
#X connect 61 0 62 0;
#X connect 62 0 63 0;
#X connect 63 0 119 0;
#X connect 64 0 2 1;
#X connect 64 0 6 1;
#X connect 64 0 10 1;
#X connect 64 0 14 1;
#X connect 64 0 18 1;
#X connect 64 0 22 1;
#X connect 64 0 26 1;
#X connect 64 0 30 1;
#X connect 64 0 34 1;
#X connect 64 0 38 1;
#X connect 64 0 42 1;
#X connect 64 0 46 1;
#X connect 64 0 50 1;
#X connect 64 0 54 1;
#X connect 64 0 58 1;
#X connect 64 0 62 1;
#X connect 65 0 0 0;
#X connect 65 0 4 0;
#X connect 65 0 8 0;
#X connect 65 0 12 0;
#X connect 65 0 16 0;
#X connect 65 0 20 0;
#X connect 65 0 24 0;
#X connect 65 0 28 0;
#X connect 65 0 32 0;
#X connect 65 0 36 0;
#X connect 65 0 40 0;
#X connect 65 0 44 0;
#X connect 65 0 48 0;
#X connect 65 0 52 0;
#X connect 65 0 56 0;
#X connect 65 0 60 0;
#X connect 67 0 64 0;
#X connect 69 0 73 0;
#X connect 69 1 72 0;
#X connect 69 2 75 0;
#X connect 69 3 74 0;
#X connect 69 4 77 0;
#X connect 69 5 76 0;
#X connect 69 6 79 0;
#X connect 69 7 78 0;
#X connect 69 8 81 0;
#X connect 69 9 80 0;
#X connect 69 10 83 0;
#X connect 69 11 82 0;
#X connect 69 12 85 0;
#X connect 69 13 84 0;
#X connect 69 14 87 0;
#X connect 69 15 86 0;
#X connect 70 0 69 0;
#X connect 72 0 4 0;
#X connect 73 0 0 0;
#X connect 74 0 12 0;
#X connect 75 0 8 0;
#X connect 76 0 20 0;
#X connect 77 0 16 0;
#X connect 78 0 28 0;
#X connect 79 0 24 0;
#X connect 80 0 36 0;
#X connect 81 0 32 0;
#X connect 82 0 44 0;
#X connect 83 0 40 0;
#X connect 84 0 52 0;
#X connect 85 0 48 0;
#X connect 86 0 60 0;
#X connect 87 0 56 0;
#X connect 88 0 73 1;
#X connect 89 0 72 1;
#X connect 90 0 75 1;
#X connect 91 0 74 1;
#X connect 92 0 77 1;
#X connect 93 0 76 1;
#X connect 94 0 79 1;
#X connect 95 0 78 1;
#X connect 96 0 81 1;
#X connect 97 0 80 1;
#X connect 98 0 83 1;
#X connect 99 0 82 1;
#X connect 100 0 85 1;
#X connect 101 0 84 1;
#X connect 102 0 87 1;
#X connect 103 0 86 1;
#X restore 902 177 pd randomizer;
#N canvas 1025 541 861 465 noteselect 0;
#X obj 262 125 select 0 1 2 3 4 5 6 7 8 9 10 11 12 13 14 15;
#X obj 149 223 f;
#X obj 179 224 f;
#X obj 210 224 f;
#X obj 243 224 f;
#X obj 276 224 f;
#X obj 309 224 f;
#X obj 342 224 f;
#X obj 375 224 f;
#X obj 408 224 f;
#X obj 441 224 f;
#X obj 474 224 f;
#X obj 507 224 f;
#X obj 540 224 f;
#X obj 573 224 f;
#X obj 606 224 f;
#X obj 639 224 f;
#X obj 59 57 inlet;
#X obj 399 320 outlet;
#X obj 160 60 inlet;
#X obj 197 60 inlet;
#X obj 234 60 inlet;
#X obj 271 60 inlet;
#X obj 308 60 inlet;
#X obj 345 60 inlet;
#X obj 382 60 inlet;
#X obj 419 60 inlet;
#X obj 456 60 inlet;
#X obj 493 60 inlet;
#X obj 530 60 inlet;
#X obj 567 60 inlet;
#X obj 604 60 inlet;
#X obj 641 60 inlet;
#X obj 678 60 inlet;
#X obj 715 60 inlet;
#X connect 0 0 1 0;
#X connect 0 1 2 0;
#X connect 0 2 3 0;
#X connect 0 3 4 0;
#X connect 0 4 5 0;
#X connect 0 5 6 0;
#X connect 0 6 7 0;
#X connect 0 7 8 0;
#X connect 0 8 9 0;
#X connect 0 9 10 0;
#X connect 0 10 11 0;
#X connect 0 11 12 0;
#X connect 0 12 13 0;
#X connect 0 13 14 0;
#X connect 0 14 15 0;
#X connect 0 15 16 0;
#X connect 1 0 18 0;
#X connect 2 0 18 0;
#X connect 3 0 18 0;
#X connect 4 0 18 0;
#X connect 5 0 18 0;
#X connect 6 0 18 0;
#X connect 7 0 18 0;
#X connect 8 0 18 0;
#X connect 9 0 18 0;
#X connect 10 0 18 0;
#X connect 11 0 18 0;
#X connect 12 0 18 0;
#X connect 13 0 18 0;
#X connect 14 0 18 0;
#X connect 15 0 18 0;
#X connect 16 0 18 0;
#X connect 17 0 0 0;
#X connect 19 0 1 1;
#X connect 20 0 2 1;
#X connect 21 0 3 1;
#X connect 22 0 4 1;
#X connect 23 0 5 1;
#X connect 24 0 6 1;
#X connect 25 0 7 1;
#X connect 26 0 8 1;
#X connect 27 0 9 1;
#X connect 28 0 10 1;
#X connect 29 0 11 1;
#X connect 30 0 12 1;
#X connect 31 0 13 1;
#X connect 32 0 14 1;
#X connect 33 0 15 1;
#X connect 34 0 16 1;
#X restore 211 415 pd noteselect;
#X obj 254 6 cnv 15 538 379 empty empty empty 20 12 0 14 -132949 -66577
0;
#X obj 259 45 hradio 33 1 0 16 empty empty empty 0 -8 0 10 -204786
-13381 -1 12;
#X obj 260 106 vsl 30 128 0 127 0 0 empty empty empty 0 -9 0 10 -232576
-1 -1 6400 1;
#X obj 293 106 vsl 30 128 0 127 0 0 empty empty empty 0 -9 0 10 -232576
-1 -1 6400 1;
#X obj 326 106 vsl 30 128 0 127 0 0 empty empty empty 0 -9 0 10 -232576
-1 -1 6400 1;
#X obj 359 106 vsl 30 128 0 127 0 0 empty empty empty 0 -9 0 10 -232576
-1 -1 6400 1;
#X obj 392 106 vsl 30 128 0 127 0 0 empty empty empty 0 -9 0 10 -203904
-1 -1 6400 1;
#X obj 425 106 vsl 30 128 0 127 0 0 empty empty empty 0 -9 0 10 -203904
-1 -1 6400 1;
#X obj 458 106 vsl 30 128 0 127 0 0 empty empty empty 0 -9 0 10 -203904
-1 -1 6400 1;
#X obj 491 106 vsl 30 128 0 127 0 0 empty empty empty 0 -9 0 10 -203904
-1 -1 6400 1;
#X obj 524 106 vsl 30 128 0 127 0 0 empty empty empty 0 -9 0 10 -232576
-1 -1 6400 1;
#X obj 557 106 vsl 30 128 0 127 0 0 empty empty empty 0 -9 0 10 -232576
-1 -1 6400 1;
#X obj 590 106 vsl 30 128 0 127 0 0 empty empty empty 0 -9 0 10 -232576
-1 -1 6400 1;
#X obj 623 106 vsl 30 128 0 127 0 0 empty empty empty 0 -9 0 10 -232576
-1 -1 6400 1;
#X obj 656 106 vsl 30 128 0 127 0 0 empty empty empty 0 -9 0 10 -203904
-1 -1 6400 1;
#X obj 689 106 vsl 30 128 0 127 0 0 empty empty empty 0 -9 0 10 -203904
-1 -1 6400 1;
#X obj 722 106 vsl 30 128 0 127 0 0 empty empty empty 0 -9 0 10 -203904
-1 -1 6400 1;
#X obj 755 106 vsl 30 128 0 127 0 0 empty empty empty 0 -9 0 10 -203904
-1 -1 6400 1;
#X obj 293 11 tgl 30 0 empty empty empty 17 7 0 10 -262144 -1 -1 0
1;
#X obj 260 11 tgl 30 0 empty empty empty 17 7 0 10 -262144 -1 -1 0
1;
#X obj 359 11 tgl 30 0 empty empty empty 17 7 0 10 -262144 -1 -1 0
1;
#X obj 326 11 tgl 30 0 empty empty empty 17 7 0 10 -262144 -1 -1 0
1;
#X obj 425 11 tgl 30 0 empty empty empty 17 7 0 10 -262144 -1 -1 0
1;
#X obj 392 11 tgl 30 0 empty empty empty 17 7 0 10 -262144 -1 -1 0
1;
#X obj 491 11 tgl 30 0 empty empty empty 17 7 0 10 -262144 -1 -1 0
1;
#X obj 458 11 tgl 30 0 empty empty empty 17 7 0 10 -262144 -1 -1 0
1;
#X obj 557 11 tgl 30 0 empty empty empty 17 7 0 10 -262144 -1 -1 0
1;
#X obj 524 11 tgl 30 0 empty empty empty 17 7 0 10 -262144 -1 -1 0
1;
#X obj 623 11 tgl 30 0 empty empty empty 17 7 0 10 -262144 -1 -1 0
1;
#X obj 590 11 tgl 30 0 empty empty empty 17 7 0 10 -262144 -1 -1 0
1;
#X obj 689 11 tgl 30 0 empty empty empty 17 7 0 10 -262144 -1 -1 0
1;
#X obj 656 11 tgl 30 0 empty empty empty 17 7 0 10 -262144 -1 -1 0
1;
#X obj 755 11 tgl 30 0 empty empty empty 17 7 0 10 -262144 -1 -1 0
1;
#X obj 722 11 tgl 30 0 empty empty empty 17 7 0 10 -262144 -1 -1 0
1;
#X floatatom 296 85 4 0 0 0 - - -, f 4;
#X floatatom 329 85 4 0 0 0 - - -, f 4;
#X floatatom 362 85 4 0 0 0 - - -, f 4;
#X floatatom 395 85 4 0 0 0 - - -, f 4;
#X floatatom 428 85 4 0 0 0 - - -, f 4;
#X floatatom 461 85 4 0 0 0 - - -, f 4;
#X floatatom 494 85 4 0 0 0 - - -, f 4;
#X floatatom 527 85 4 0 0 0 - - -, f 4;
#X floatatom 561 85 4 0 0 0 - - -, f 4;
#X floatatom 593 85 4 0 0 0 - - -, f 4;
#X floatatom 626 85 4 0 0 0 - - -, f 4;
#X floatatom 659 85 4 0 0 0 - - -, f 4;
#X floatatom 692 85 4 0 0 0 - - -, f 4;
#X floatatom 725 85 4 0 0 0 - - -, f 4;
#X floatatom 758 85 4 0 0 0 - - -, f 4;
#X floatatom 263 85 4 0 0 0 - - -, f 4;
#X obj 259 241 hradio 33 1 0 16 empty empty empty 0 -8 0 10 -204786
-13381 -1 0;
#X obj 293 278 tgl 30 0 empty empty empty 17 7 0 10 -260566 -1 -1 0
1;
#X obj 260 278 tgl 30 0 empty empty Random\ steps -80 13 1 11 -260566
-1 -1 0 1;
#X obj 359 278 tgl 30 0 empty empty empty 17 7 0 10 -260566 -1 -1 0
1;
#X obj 326 278 tgl 30 0 empty empty empty 17 7 0 10 -260566 -1 -1 0
1;
#X obj 425 278 tgl 30 0 empty empty empty 17 7 0 10 -260566 -1 -1 0
1;
#X obj 392 278 tgl 30 0 empty empty empty 17 7 0 10 -260566 -1 -1 0
1;
#X obj 491 278 tgl 30 0 empty empty empty 17 7 0 10 -260566 -1 -1 0
1;
#X obj 458 278 tgl 30 0 empty empty empty 17 7 0 10 -260566 -1 -1 0
1;
#X obj 557 278 tgl 30 0 empty empty empty 17 7 0 10 -260566 -1 -1 0
1;
#X obj 524 278 tgl 30 0 empty empty empty 17 7 0 10 -260566 -1 -1 0
1;
#X obj 623 278 tgl 30 0 empty empty empty 17 7 0 10 -260566 -1 -1 0
1;
#X obj 590 278 tgl 30 0 empty empty empty 17 7 0 10 -260566 -1 -1 0
1;
#X obj 689 278 tgl 30 0 empty empty empty 17 7 0 10 -260566 -1 -1 0
1;
#X obj 656 278 tgl 30 0 empty empty empty 17 7 0 10 -260566 -1 -1 0
1;
#X obj 755 278 tgl 30 0 empty empty empty 17 7 0 10 -260566 -1 -1 0
1;
#X obj 722 278 tgl 30 0 empty empty empty 17 7 0 10 -260566 -1 -1 0
1;
#X obj 301 320 vradio 15 0 0 4 empty empty empty 0 -8 0 10 -262144
-1 -1 1;
#X obj 334 320 vradio 15 0 0 4 empty empty empty 0 -8 0 10 -262144
-1 -1 1;
#X obj 367 320 vradio 15 0 0 4 empty empty empty 0 -8 0 10 -262144
-1 -1 1;
#X obj 400 320 vradio 15 0 0 4 empty empty empty 0 -8 0 10 -262144
-1 -1 1;
#X obj 433 320 vradio 15 0 0 4 empty empty empty 0 -8 0 10 -262144
-1 -1 1;
#X obj 466 320 vradio 15 0 0 4 empty empty empty 0 -8 0 10 -262144
-1 -1 1;
#X obj 499 320 vradio 15 0 0 4 empty empty empty 0 -8 0 10 -262144
-1 -1 1;
#X obj 532 320 vradio 15 0 0 4 empty empty empty 0 -8 0 10 -262144
-1 -1 1;
#X obj 565 320 vradio 15 0 0 4 empty empty empty 0 -8 0 10 -262144
-1 -1 1;
#X obj 598 320 vradio 15 0 0 4 empty empty empty 0 -8 0 10 -262144
-1 -1 1;
#X obj 631 320 vradio 15 0 0 4 empty empty empty 0 -8 0 10 -262144
-1 -1 1;
#X obj 664 320 vradio 15 0 0 4 empty empty empty 0 -8 0 10 -262144
-1 -1 1;
#X obj 697 320 vradio 15 0 0 4 empty empty empty 0 -8 0 10 -262144
-1 -1 1;
#X obj 730 320 vradio 15 0 0 4 empty empty empty 0 -8 0 10 -262144
-1 -1 1;
#X obj 763 320 vradio 15 0 0 4 empty empty empty 0 -8 0 10 -262144
-1 -1 1;
#X obj 268 320 vradio 15 0 0 4 empty empty empty 0 -8 0 10 -262144
-1 -1 1;
#X obj 24 81 select 0;
#X msg 24 109 0;
#X connect 0 0 27 0;
#X connect 1 0 0 0;
#X connect 1 0 109 0;
#X connect 2 0 76 0;
#X connect 3 0 20 0;
#X connect 4 0 5 0;
#X connect 5 0 28 0;
#X connect 5 0 29 0;
#X connect 5 0 30 0;
#X connect 5 0 31 0;
#X connect 5 0 32 0;
#X connect 5 0 33 0;
#X connect 5 0 34 0;
#X connect 5 0 35 0;
#X connect 5 0 36 0;
#X connect 5 0 37 0;
#X connect 5 0 38 0;
#X connect 5 0 39 0;
#X connect 5 0 40 0;
#X connect 5 0 41 0;
#X connect 5 0 42 0;
#X connect 5 0 43 0;
#X connect 6 0 24 1;
#X connect 7 0 20 1;
#X connect 7 0 23 1;
#X connect 8 0 0 1;
#X connect 9 0 2 1;
#X connect 10 0 24 0;
#X connect 11 0 23 0;
#X connect 12 0 23 2;
#X connect 13 0 4 0;
#X connect 18 0 19 0;
#X connect 19 0 108 0;
#X connect 19 0 107 0;
#X connect 19 0 106 0;
#X connect 19 0 105 0;
#X connect 19 0 104 0;
#X connect 19 0 103 0;
#X connect 19 0 102 0;
#X connect 19 0 101 0;
#X connect 19 0 100 0;
#X connect 19 0 99 0;
#X connect 19 0 98 0;
#X connect 19 0 97 0;
#X connect 19 0 96 0;
#X connect 19 0 95 0;
#X connect 19 0 94 0;
#X connect 19 0 93 0;
#X connect 21 0 2 0;
#X connect 22 0 23 4;
#X connect 24 0 28 0;
#X connect 24 1 29 0;
#X connect 24 2 30 0;
#X connect 24 3 31 0;
#X connect 24 4 32 0;
#X connect 24 5 33 0;
#X connect 24 6 34 0;
#X connect 24 7 35 0;
#X connect 24 8 36 0;
#X connect 24 9 37 0;
#X connect 24 10 38 0;
#X connect 24 11 39 0;
#X connect 24 12 40 0;
#X connect 24 13 41 0;
#X connect 24 14 42 0;
#X connect 24 15 43 0;
#X connect 25 0 23 3;
#X connect 27 0 21 0;
#X connect 28 0 75 0;
#X connect 28 0 25 1;
#X connect 29 0 60 0;
#X connect 29 0 25 2;
#X connect 30 0 61 0;
#X connect 30 0 25 3;
#X connect 31 0 62 0;
#X connect 31 0 25 4;
#X connect 32 0 63 0;
#X connect 32 0 25 5;
#X connect 33 0 64 0;
#X connect 33 0 25 6;
#X connect 34 0 65 0;
#X connect 34 0 25 7;
#X connect 35 0 66 0;
#X connect 35 0 25 8;
#X connect 36 0 67 0;
#X connect 36 0 25 9;
#X connect 37 0 68 0;
#X connect 37 0 25 10;
#X connect 38 0 69 0;
#X connect 38 0 25 11;
#X connect 39 0 70 0;
#X connect 39 0 25 12;
#X connect 40 0 71 0;
#X connect 40 0 25 13;
#X connect 41 0 72 0;
#X connect 41 0 25 14;
#X connect 42 0 73 0;
#X connect 42 0 25 15;
#X connect 43 0 74 0;
#X connect 43 0 25 16;
#X connect 44 0 21 2;
#X connect 45 0 21 1;
#X connect 46 0 21 4;
#X connect 47 0 21 3;
#X connect 48 0 21 6;
#X connect 49 0 21 5;
#X connect 50 0 21 8;
#X connect 51 0 21 7;
#X connect 52 0 21 10;
#X connect 53 0 21 9;
#X connect 54 0 21 12;
#X connect 55 0 21 11;
#X connect 56 0 21 14;
#X connect 57 0 21 13;
#X connect 58 0 21 16;
#X connect 59 0 21 15;
#X connect 76 0 22 0;
#X connect 76 0 25 0;
#X connect 76 0 24 2;
#X connect 77 0 24 4;
#X connect 78 0 24 3;
#X connect 79 0 24 6;
#X connect 80 0 24 5;
#X connect 81 0 24 8;
#X connect 82 0 24 7;
#X connect 83 0 24 10;
#X connect 84 0 24 9;
#X connect 85 0 24 12;
#X connect 86 0 24 11;
#X connect 87 0 24 14;
#X connect 88 0 24 13;
#X connect 89 0 24 16;
#X connect 90 0 24 15;
#X connect 91 0 24 18;
#X connect 92 0 24 17;
#X connect 93 0 22 2;
#X connect 94 0 22 3;
#X connect 95 0 22 4;
#X connect 96 0 22 5;
#X connect 97 0 22 6;
#X connect 98 0 22 7;
#X connect 99 0 22 8;
#X connect 100 0 22 9;
#X connect 101 0 22 10;
#X connect 102 0 22 11;
#X connect 103 0 22 12;
#X connect 104 0 22 13;
#X connect 105 0 22 14;
#X connect 106 0 22 15;
#X connect 107 0 22 16;
#X connect 108 0 22 1;
#X connect 109 0 110 0;
#X connect 110 0 2 0;
#X coords 0 -1 1 1 681 390 2 115 1;
#X restore 10 6 pd SEQ1 Rel;
#N canvas 3 59 1272 743 SEQ1 0;
#X obj 36 37 mod 16;
#X floatatom 36 11 5 0 0 0 - #0-sync -, f 5;
#X obj 24 178 mod 16;
#X obj 206 191 bng 15 250 50 0 empty empty Panic -43 9 0 12 -258113
-1 -1;
#X obj 206 167 bng 15 250 50 0 empty empty Reset_64 -52 8 0 10 -260097
-1 -1;
#X msg 1024 89 64;
#X obj 206 94 bng 15 250 50 0 empty empty random -45 7 1 11 -261682
-1 -1;
#X obj 205 8 nbx 2 14 1 16 0 1 empty empty Midi_Channel -80 8 1 11
-260097 -1 -1 1 256 0;
#X obj 206 61 nbx 2 14 1 16 0 1 empty empty Steps -38 7 1 11 -204800
-1 -1 16 256 0;
#X obj 206 253 nbx 2 14 1 16 0 1 empty empty Steps -38 7 1 11 -204800
-1 -1 16 256 0;
#X obj 206 116 nbx 2 14 1 10 0 1 empty empty Octaves -48 7 1 11 -261682
-1 -1 3 256 0;
#X obj 172 137 hradio 15 1 1 5 empty empty Transp -42 8 1 11 -262144
-1 -1 1;
#X obj 206 32 tgl 15 0 empty empty Slave -35 8 1 11 -262144 -1 -1 0
1;
#X obj 36 62 loadbang;
#X text 210 320 80ms;
#X text 210 335 160ms;
#X text 210 350 240ms;
#X text 210 365 320ms;
#X obj 36 277 loadbang;
#X msg 36 303 1;
#N canvas 1358 546 450 433 panic 0;
#X obj 134 313 ctlout;
#X msg 134 289 123 123 \$1;
#X obj 195 172 until;
#X obj 195 194 f 0;
#X obj 226 194 + 1;
#X obj 195 217 t f b;
#X msg 223 238 0;
#X msg 195 147 128;
#X obj 195 260 noteout \$1;
#X obj 134 123 t f b b f;
#X msg 227 146 0;
#X obj 134 85 \$1;
#X obj 88 31 inlet;
#X obj 172 30 inlet;
#X connect 1 0 0 0;
#X connect 2 0 3 0;
#X connect 3 0 4 0;
#X connect 3 0 5 0;
#X connect 4 0 3 1;
#X connect 5 0 8 0;
#X connect 5 1 6 0;
#X connect 6 0 8 1;
#X connect 7 0 2 0;
#X connect 9 0 1 0;
#X connect 9 1 7 0;
#X connect 9 2 10 0;
#X connect 9 3 8 2;
#X connect 10 0 3 1;
#X connect 11 0 9 0;
#X connect 12 0 11 0;
#X connect 13 0 11 1;
#X restore 36 206 pd panic;
#N canvas 1136 330 781 551 mainsteps 0;
#X obj 185 137 select 0 1 2 3 4 5 6 7 8 9 10 11 12 13 14 15;
#X obj 130 204 spigot;
#X obj 97 178 spigot;
#X obj 196 204 spigot;
#X obj 163 178 spigot;
#X obj 262 204 spigot;
#X obj 229 178 spigot;
#X obj 328 204 spigot;
#X obj 295 178 spigot;
#X obj 394 204 spigot;
#X obj 361 178 spigot;
#X obj 460 204 spigot;
#X obj 427 178 spigot;
#X obj 526 204 spigot;
#X obj 493 178 spigot;
#X obj 592 204 spigot;
#X obj 559 178 spigot;
#X obj 283 360 + 1;
#X obj 343 360 f;
#X obj 124 56 inlet;
#X obj 162 56 inlet;
#X obj 200 56 inlet;
#X obj 238 56 inlet;
#X obj 276 56 inlet;
#X obj 314 56 inlet;
#X obj 352 56 inlet;
#X obj 390 56 inlet;
#X obj 428 56 inlet;
#X obj 466 56 inlet;
#X obj 504 56 inlet;
#X obj 542 56 inlet;
#X obj 580 56 inlet;
#X obj 618 56 inlet;
#X obj 656 56 inlet;
#X obj 694 56 inlet;
#X obj 76 56 inlet;
#X obj 233 435 outlet;
#X floatatom 114 302 5 0 0 0 - #0-sync -, f 5;
#X obj 114 328 select 0;
#X msg 134 357 -1;
#X connect 0 0 2 0;
#X connect 0 1 1 0;
#X connect 0 2 4 0;
#X connect 0 3 3 0;
#X connect 0 4 6 0;
#X connect 0 5 5 0;
#X connect 0 6 8 0;
#X connect 0 7 7 0;
#X connect 0 8 10 0;
#X connect 0 9 9 0;
#X connect 0 10 12 0;
#X connect 0 11 11 0;
#X connect 0 12 14 0;
#X connect 0 13 13 0;
#X connect 0 14 16 0;
#X connect 0 15 15 0;
#X connect 1 0 18 0;
#X connect 2 0 18 0;
#X connect 3 0 18 0;
#X connect 4 0 18 0;
#X connect 5 0 18 0;
#X connect 6 0 18 0;
#X connect 7 0 18 0;
#X connect 8 0 18 0;
#X connect 9 0 18 0;
#X connect 10 0 18 0;
#X connect 11 0 18 0;
#X connect 12 0 18 0;
#X connect 13 0 18 0;
#X connect 14 0 18 0;
#X connect 15 0 18 0;
#X connect 16 0 18 0;
#X connect 17 0 18 1;
#X connect 18 0 17 0;
#X connect 18 0 36 0;
#X connect 19 0 2 1;
#X connect 20 0 1 1;
#X connect 21 0 4 1;
#X connect 22 0 3 1;
#X connect 23 0 6 1;
#X connect 24 0 5 1;
#X connect 25 0 8 1;
#X connect 26 0 7 1;
#X connect 27 0 10 1;
#X connect 28 0 9 1;
#X connect 29 0 12 1;
#X connect 30 0 11 1;
#X connect 31 0 14 1;
#X connect 32 0 13 1;
#X connect 33 0 16 1;
#X connect 34 0 15 1;
#X connect 35 0 0 0;
#X connect 37 0 38 0;
#X connect 38 0 39 0;
#X connect 39 0 18 0;
#X restore 956 45 pd mainsteps;
#N canvas 314 341 917 603 gatetime 0;
#X obj 206 246 + 1;
#X obj 239 246 + 1;
#X obj 272 246 + 1;
#X obj 305 246 + 1;
#X obj 338 246 + 1;
#X obj 371 246 + 1;
#X obj 404 246 + 1;
#X obj 437 246 + 1;
#X obj 470 246 + 1;
#X obj 503 246 + 1;
#X obj 536 246 + 1;
#X obj 569 246 + 1;
#X obj 602 246 + 1;
#X obj 635 246 + 1;
#X obj 668 246 + 1;
#X obj 701 246 + 1;
#X obj 206 275 * 80;
#X obj 239 275 * 80;
#X obj 272 274 * 80;
#X obj 305 275 * 80;
#X obj 338 275 * 80;
#X obj 371 275 * 80;
#X obj 404 275 * 80;
#X obj 437 275 * 80;
#X obj 470 275 * 80;
#X obj 503 275 * 80;
#X obj 536 275 * 80;
#X obj 569 275 * 80;
#X obj 602 275 * 80;
#X obj 635 275 * 80;
#X obj 668 275 * 80;
#X obj 701 275 * 80;
#X obj 209 312 i;
#X obj 239 312 i;
#X obj 270 312 i;
#X obj 304 312 i;
#X obj 336 312 i;
#X obj 369 312 i;
#X obj 402 312 i;
#X obj 435 312 i;
#X obj 468 312 i;
#X obj 501 312 i;
#X obj 534 312 i;
#X obj 567 312 i;
#X obj 600 312 i;
#X obj 633 312 i;
#X obj 666 312 i;
#X obj 699 312 i;
#X obj 799 295 select 0 1 2 3 4 5 6 7 8 9 10 11 12 13 14 15;
#X obj 117 202 inlet;
#X obj 168 202 inlet;
#X obj 206 202 inlet;
#X obj 244 202 inlet;
#X obj 282 202 inlet;
#X obj 320 202 inlet;
#X obj 358 202 inlet;
#X obj 396 202 inlet;
#X obj 434 202 inlet;
#X obj 472 202 inlet;
#X obj 510 202 inlet;
#X obj 548 202 inlet;
#X obj 586 202 inlet;
#X obj 624 202 inlet;
#X obj 662 202 inlet;
#X obj 700 202 inlet;
#X obj 738 202 inlet;
#X obj 442 456 outlet;
#X connect 0 0 16 0;
#X connect 1 0 17 0;
#X connect 2 0 18 0;
#X connect 3 0 19 0;
#X connect 4 0 20 0;
#X connect 5 0 21 0;
#X connect 6 0 22 0;
#X connect 7 0 23 0;
#X connect 8 0 24 0;
#X connect 9 0 25 0;
#X connect 10 0 26 0;
#X connect 11 0 27 0;
#X connect 12 0 28 0;
#X connect 13 0 29 0;
#X connect 14 0 30 0;
#X connect 15 0 31 0;
#X connect 16 0 32 1;
#X connect 17 0 33 1;
#X connect 18 0 34 1;
#X connect 19 0 35 1;
#X connect 20 0 36 1;
#X connect 21 0 37 1;
#X connect 22 0 38 1;
#X connect 23 0 39 1;
#X connect 24 0 40 1;
#X connect 25 0 41 1;
#X connect 26 0 42 1;
#X connect 27 0 43 1;
#X connect 28 0 44 1;
#X connect 29 0 45 1;
#X connect 30 0 46 1;
#X connect 31 0 47 1;
#X connect 32 0 66 0;
#X connect 33 0 66 0;
#X connect 34 0 66 0;
#X connect 35 0 66 0;
#X connect 36 0 66 0;
#X connect 37 0 66 0;
#X connect 38 0 66 0;
#X connect 39 0 66 0;
#X connect 40 0 66 0;
#X connect 41 0 66 0;
#X connect 42 0 66 0;
#X connect 43 0 66 0;
#X connect 44 0 66 0;
#X connect 45 0 66 0;
#X connect 46 0 66 0;
#X connect 47 0 66 0;
#X connect 48 0 32 0;
#X connect 48 1 33 0;
#X connect 48 2 34 0;
#X connect 48 3 35 0;
#X connect 48 4 36 0;
#X connect 48 5 37 0;
#X connect 48 6 38 0;
#X connect 48 7 39 0;
#X connect 48 8 40 0;
#X connect 48 9 41 0;
#X connect 48 10 42 0;
#X connect 48 11 43 0;
#X connect 48 12 44 0;
#X connect 48 13 45 0;
#X connect 48 14 46 0;
#X connect 48 15 47 0;
#X connect 49 0 48 0;
#X connect 50 0 0 0;
#X connect 51 0 1 0;
#X connect 52 0 2 0;
#X connect 53 0 3 0;
#X connect 54 0 4 0;
#X connect 55 0 5 0;
#X connect 56 0 6 0;
#X connect 57 0 7 0;
#X connect 58 0 8 0;
#X connect 59 0 9 0;
#X connect 60 0 10 0;
#X connect 61 0 11 0;
#X connect 62 0 12 0;
#X connect 63 0 13 0;
#X connect 64 0 14 0;
#X connect 65 0 15 0;
#X restore 409 567 pd gatetime;
#N canvas 1267 324 653 722 notegenerator 0;
#X obj 214 547 noteout;
#X obj 311 322 * 12;
#X obj 311 297 int;
#X obj 311 273 / 12;
#X obj 249 285 % 12;
#X obj 396 312 r \$0-scale;
#X msg 396 342 set \$1;
#X obj 187 309 - 2;
#X obj 172 434 moses 0;
#X obj 187 367 + \$1;
#X obj 172 403 moses 127;
#X obj 261 387 tabread off-harmonic;
#X obj 265 422 + \$1;
#X obj 187 332 * 12;
#X obj 239 243 + \$1;
#X obj 343 4 r \$0-shift1;
#X obj 296 176 spigot;
#X obj 39 68 inlet;
#X obj 95 68 inlet;
#X obj 146 68 inlet;
#X obj 196 68 inlet;
#X obj 248 68 inlet;
#X text 31 46 transp;
#X text 88 47 channel;
#X text 142 47 slave;
#X text 193 47 notes;
#X text 241 47 gatetime;
#X obj 155 146 select 0;
#X msg 155 170 0;
#X obj 212 471 makenote 127 40;
#X connect 1 0 12 0;
#X connect 2 0 1 0;
#X connect 3 0 2 0;
#X connect 4 0 11 0;
#X connect 5 0 6 0;
#X connect 6 0 11 0;
#X connect 7 0 13 0;
#X connect 8 1 29 0;
#X connect 9 0 10 0;
#X connect 10 0 8 0;
#X connect 11 0 12 1;
#X connect 12 0 9 0;
#X connect 13 0 9 1;
#X connect 14 0 4 0;
#X connect 14 0 3 0;
#X connect 15 0 16 0;
#X connect 16 0 14 1;
#X connect 17 0 7 0;
#X connect 18 0 0 2;
#X connect 19 0 16 1;
#X connect 19 0 27 0;
#X connect 20 0 14 0;
#X connect 21 0 29 2;
#X connect 27 0 28 0;
#X connect 28 0 14 1;
#X connect 29 0 0 0;
#X connect 29 1 0 1;
#X restore 142 463 pd notegenerator;
#N canvas 374 247 1044 710 randomizer 0;
#X obj 73 315 random 12;
#X obj 73 341 - 6;
#X obj 73 366 * \$1;
#X obj 73 391 + 64;
#X obj 146 315 random 12;
#X obj 146 341 - 6;
#X obj 146 366 * \$1;
#X obj 146 391 + 64;
#X obj 219 315 random 12;
#X obj 219 341 - 6;
#X obj 219 366 * \$1;
#X obj 219 391 + 64;
#X obj 292 315 random 12;
#X obj 292 341 - 6;
#X obj 292 366 * \$1;
#X obj 292 391 + 64;
#X obj 365 315 random 12;
#X obj 365 341 - 6;
#X obj 365 366 * \$1;
#X obj 365 391 + 64;
#X obj 438 315 random 12;
#X obj 438 341 - 6;
#X obj 438 366 * \$1;
#X obj 438 391 + 64;
#X obj 511 315 random 12;
#X obj 511 341 - 6;
#X obj 511 366 * \$1;
#X obj 511 391 + 64;
#X obj 584 315 random 12;
#X obj 584 341 - 6;
#X obj 584 366 * \$1;
#X obj 584 391 + 64;
#X obj 67 433 random 12;
#X obj 67 460 - 6;
#X obj 67 485 * \$1;
#X obj 67 510 + 64;
#X obj 140 433 random 12;
#X obj 140 459 - 6;
#X obj 140 484 * \$1;
#X obj 140 509 + 64;
#X obj 213 433 random 12;
#X obj 213 459 - 6;
#X obj 213 484 * \$1;
#X obj 213 509 + 64;
#X obj 286 433 random 12;
#X obj 286 459 - 6;
#X obj 286 484 * \$1;
#X obj 286 509 + 64;
#X obj 359 433 random 12;
#X obj 359 459 - 6;
#X obj 359 484 * \$1;
#X obj 359 509 + 64;
#X obj 432 433 random 12;
#X obj 432 459 - 6;
#X obj 432 484 * \$1;
#X obj 432 509 + 64;
#X obj 505 433 random 12;
#X obj 505 459 - 6;
#X obj 505 484 * \$1;
#X obj 505 509 + 64;
#X obj 578 433 random 12;
#X obj 578 459 - 6;
#X obj 578 484 * \$1;
#X obj 578 509 + 64;
#X floatatom 124 215 5 1 10 0 octave - -, f 5;
#X obj 97 37 inlet;
#X text 90 18 rndbang;
#X obj 28 37 inlet;
#X text 24 15 rndoctv;
#X obj 550 117 select 0 1 2 3 4 5 6 7 8 9 10 11 12 13 14 15;
#X obj 164 38 inlet;
#X text 163 17 steps;
#X obj 473 228 spigot;
#X obj 440 202 spigot;
#X obj 539 228 spigot;
#X obj 506 202 spigot;
#X obj 605 228 spigot;
#X obj 572 202 spigot;
#X obj 671 228 spigot;
#X obj 638 202 spigot;
#X obj 737 228 spigot;
#X obj 704 202 spigot;
#X obj 803 228 spigot;
#X obj 770 202 spigot;
#X obj 869 228 spigot;
#X obj 836 202 spigot;
#X obj 935 228 spigot;
#X obj 902 202 spigot;
#X obj 238 37 inlet;
#X obj 277 37 inlet;
#X obj 316 37 inlet;
#X obj 355 37 inlet;
#X obj 394 37 inlet;
#X obj 433 37 inlet;
#X obj 472 37 inlet;
#X obj 511 37 inlet;
#X obj 550 37 inlet;
#X obj 589 37 inlet;
#X obj 628 37 inlet;
#X obj 667 37 inlet;
#X obj 706 37 inlet;
#X obj 745 37 inlet;
#X obj 784 37 inlet;
#X obj 823 37 inlet;
#X obj 3 590 outlet;
#X obj 48 590 outlet;
#X obj 93 590 outlet;
#X obj 138 590 outlet;
#X obj 183 590 outlet;
#X obj 228 590 outlet;
#X obj 273 590 outlet;
#X obj 318 590 outlet;
#X obj 363 590 outlet;
#X obj 408 590 outlet;
#X obj 453 590 outlet;
#X obj 498 590 outlet;
#X obj 543 590 outlet;
#X obj 588 590 outlet;
#X obj 633 590 outlet;
#X obj 678 590 outlet;
#X connect 0 0 1 0;
#X connect 1 0 2 0;
#X connect 2 0 3 0;
#X connect 3 0 104 0;
#X connect 4 0 5 0;
#X connect 5 0 6 0;
#X connect 6 0 7 0;
#X connect 7 0 105 0;
#X connect 8 0 9 0;
#X connect 9 0 10 0;
#X connect 10 0 11 0;
#X connect 11 0 106 0;
#X connect 12 0 13 0;
#X connect 13 0 14 0;
#X connect 14 0 15 0;
#X connect 15 0 107 0;
#X connect 16 0 17 0;
#X connect 17 0 18 0;
#X connect 18 0 19 0;
#X connect 19 0 108 0;
#X connect 20 0 21 0;
#X connect 21 0 22 0;
#X connect 22 0 23 0;
#X connect 23 0 109 0;
#X connect 24 0 25 0;
#X connect 25 0 26 0;
#X connect 26 0 27 0;
#X connect 27 0 110 0;
#X connect 28 0 29 0;
#X connect 29 0 30 0;
#X connect 30 0 31 0;
#X connect 31 0 111 0;
#X connect 32 0 33 0;
#X connect 33 0 34 0;
#X connect 34 0 35 0;
#X connect 35 0 112 0;
#X connect 36 0 37 0;
#X connect 37 0 38 0;
#X connect 38 0 39 0;
#X connect 39 0 113 0;
#X connect 40 0 41 0;
#X connect 41 0 42 0;
#X connect 42 0 43 0;
#X connect 43 0 114 0;
#X connect 44 0 45 0;
#X connect 45 0 46 0;
#X connect 46 0 47 0;
#X connect 47 0 115 0;
#X connect 48 0 49 0;
#X connect 49 0 50 0;
#X connect 50 0 51 0;
#X connect 51 0 116 0;
#X connect 52 0 53 0;
#X connect 53 0 54 0;
#X connect 54 0 55 0;
#X connect 55 0 117 0;
#X connect 56 0 57 0;
#X connect 57 0 58 0;
#X connect 58 0 59 0;
#X connect 59 0 118 0;
#X connect 60 0 61 0;
#X connect 61 0 62 0;
#X connect 62 0 63 0;
#X connect 63 0 119 0;
#X connect 64 0 2 1;
#X connect 64 0 6 1;
#X connect 64 0 10 1;
#X connect 64 0 14 1;
#X connect 64 0 18 1;
#X connect 64 0 22 1;
#X connect 64 0 26 1;
#X connect 64 0 30 1;
#X connect 64 0 34 1;
#X connect 64 0 38 1;
#X connect 64 0 42 1;
#X connect 64 0 46 1;
#X connect 64 0 50 1;
#X connect 64 0 54 1;
#X connect 64 0 58 1;
#X connect 64 0 62 1;
#X connect 65 0 0 0;
#X connect 65 0 4 0;
#X connect 65 0 8 0;
#X connect 65 0 12 0;
#X connect 65 0 16 0;
#X connect 65 0 20 0;
#X connect 65 0 24 0;
#X connect 65 0 28 0;
#X connect 65 0 32 0;
#X connect 65 0 36 0;
#X connect 65 0 40 0;
#X connect 65 0 44 0;
#X connect 65 0 48 0;
#X connect 65 0 52 0;
#X connect 65 0 56 0;
#X connect 65 0 60 0;
#X connect 67 0 64 0;
#X connect 69 0 73 0;
#X connect 69 1 72 0;
#X connect 69 2 75 0;
#X connect 69 3 74 0;
#X connect 69 4 77 0;
#X connect 69 5 76 0;
#X connect 69 6 79 0;
#X connect 69 7 78 0;
#X connect 69 8 81 0;
#X connect 69 9 80 0;
#X connect 69 10 83 0;
#X connect 69 11 82 0;
#X connect 69 12 85 0;
#X connect 69 13 84 0;
#X connect 69 14 87 0;
#X connect 69 15 86 0;
#X connect 70 0 69 0;
#X connect 72 0 4 0;
#X connect 73 0 0 0;
#X connect 74 0 12 0;
#X connect 75 0 8 0;
#X connect 76 0 20 0;
#X connect 77 0 16 0;
#X connect 78 0 28 0;
#X connect 79 0 24 0;
#X connect 80 0 36 0;
#X connect 81 0 32 0;
#X connect 82 0 44 0;
#X connect 83 0 40 0;
#X connect 84 0 52 0;
#X connect 85 0 48 0;
#X connect 86 0 60 0;
#X connect 87 0 56 0;
#X connect 88 0 73 1;
#X connect 89 0 72 1;
#X connect 90 0 75 1;
#X connect 91 0 74 1;
#X connect 92 0 77 1;
#X connect 93 0 76 1;
#X connect 94 0 79 1;
#X connect 95 0 78 1;
#X connect 96 0 81 1;
#X connect 97 0 80 1;
#X connect 98 0 83 1;
#X connect 99 0 82 1;
#X connect 100 0 85 1;
#X connect 101 0 84 1;
#X connect 102 0 87 1;
#X connect 103 0 86 1;
#X restore 902 177 pd randomizer;
#N canvas 1025 541 861 465 noteselect 0;
#X obj 262 125 select 0 1 2 3 4 5 6 7 8 9 10 11 12 13 14 15;
#X obj 149 223 f;
#X obj 179 224 f;
#X obj 210 224 f;
#X obj 243 224 f;
#X obj 276 224 f;
#X obj 309 224 f;
#X obj 342 224 f;
#X obj 375 224 f;
#X obj 408 224 f;
#X obj 441 224 f;
#X obj 474 224 f;
#X obj 507 224 f;
#X obj 540 224 f;
#X obj 573 224 f;
#X obj 606 224 f;
#X obj 639 224 f;
#X obj 59 57 inlet;
#X obj 399 320 outlet;
#X obj 160 60 inlet;
#X obj 197 60 inlet;
#X obj 234 60 inlet;
#X obj 271 60 inlet;
#X obj 308 60 inlet;
#X obj 345 60 inlet;
#X obj 382 60 inlet;
#X obj 419 60 inlet;
#X obj 456 60 inlet;
#X obj 493 60 inlet;
#X obj 530 60 inlet;
#X obj 567 60 inlet;
#X obj 604 60 inlet;
#X obj 641 60 inlet;
#X obj 678 60 inlet;
#X obj 715 60 inlet;
#X connect 0 0 1 0;
#X connect 0 1 2 0;
#X connect 0 2 3 0;
#X connect 0 3 4 0;
#X connect 0 4 5 0;
#X connect 0 5 6 0;
#X connect 0 6 7 0;
#X connect 0 7 8 0;
#X connect 0 8 9 0;
#X connect 0 9 10 0;
#X connect 0 10 11 0;
#X connect 0 11 12 0;
#X connect 0 12 13 0;
#X connect 0 13 14 0;
#X connect 0 14 15 0;
#X connect 0 15 16 0;
#X connect 1 0 18 0;
#X connect 2 0 18 0;
#X connect 3 0 18 0;
#X connect 4 0 18 0;
#X connect 5 0 18 0;
#X connect 6 0 18 0;
#X connect 7 0 18 0;
#X connect 8 0 18 0;
#X connect 9 0 18 0;
#X connect 10 0 18 0;
#X connect 11 0 18 0;
#X connect 12 0 18 0;
#X connect 13 0 18 0;
#X connect 14 0 18 0;
#X connect 15 0 18 0;
#X connect 16 0 18 0;
#X connect 17 0 0 0;
#X connect 19 0 1 1;
#X connect 20 0 2 1;
#X connect 21 0 3 1;
#X connect 22 0 4 1;
#X connect 23 0 5 1;
#X connect 24 0 6 1;
#X connect 25 0 7 1;
#X connect 26 0 8 1;
#X connect 27 0 9 1;
#X connect 28 0 10 1;
#X connect 29 0 11 1;
#X connect 30 0 12 1;
#X connect 31 0 13 1;
#X connect 32 0 14 1;
#X connect 33 0 15 1;
#X connect 34 0 16 1;
#X restore 211 415 pd noteselect;
#X obj 254 6 cnv 15 538 379 empty empty empty 20 12 0 14 -132949 -66577
0;
#X obj 259 45 hradio 33 1 0 16 empty empty empty 0 -8 0 10 -204786
-13381 -1 12;
#X obj 260 106 vsl 30 128 0 127 0 0 empty empty empty 0 -9 0 10 -232576
-1 -1 6400 1;
#X obj 293 106 vsl 30 128 0 127 0 0 empty empty empty 0 -9 0 10 -232576
-1 -1 6400 1;
#X obj 326 106 vsl 30 128 0 127 0 0 empty empty empty 0 -9 0 10 -232576
-1 -1 6400 1;
#X obj 359 106 vsl 30 128 0 127 0 0 empty empty empty 0 -9 0 10 -232576
-1 -1 6400 1;
#X obj 392 106 vsl 30 128 0 127 0 0 empty empty empty 0 -9 0 10 -203904
-1 -1 6400 1;
#X obj 425 106 vsl 30 128 0 127 0 0 empty empty empty 0 -9 0 10 -203904
-1 -1 6400 1;
#X obj 458 106 vsl 30 128 0 127 0 0 empty empty empty 0 -9 0 10 -203904
-1 -1 6400 1;
#X obj 491 106 vsl 30 128 0 127 0 0 empty empty empty 0 -9 0 10 -203904
-1 -1 6400 1;
#X obj 524 106 vsl 30 128 0 127 0 0 empty empty empty 0 -9 0 10 -232576
-1 -1 6400 1;
#X obj 557 106 vsl 30 128 0 127 0 0 empty empty empty 0 -9 0 10 -232576
-1 -1 6400 1;
#X obj 590 106 vsl 30 128 0 127 0 0 empty empty empty 0 -9 0 10 -232576
-1 -1 6400 1;
#X obj 623 106 vsl 30 128 0 127 0 0 empty empty empty 0 -9 0 10 -232576
-1 -1 6400 1;
#X obj 656 106 vsl 30 128 0 127 0 0 empty empty empty 0 -9 0 10 -203904
-1 -1 6400 1;
#X obj 689 106 vsl 30 128 0 127 0 0 empty empty empty 0 -9 0 10 -203904
-1 -1 6400 1;
#X obj 722 106 vsl 30 128 0 127 0 0 empty empty empty 0 -9 0 10 -203904
-1 -1 6400 1;
#X obj 755 106 vsl 30 128 0 127 0 0 empty empty empty 0 -9 0 10 -203904
-1 -1 6400 1;
#X obj 293 11 tgl 30 0 empty empty empty 17 7 0 10 -262144 -1 -1 0
1;
#X obj 260 11 tgl 30 0 empty empty empty 17 7 0 10 -262144 -1 -1 0
1;
#X obj 359 11 tgl 30 0 empty empty empty 17 7 0 10 -262144 -1 -1 0
1;
#X obj 326 11 tgl 30 0 empty empty empty 17 7 0 10 -262144 -1 -1 0
1;
#X obj 425 11 tgl 30 0 empty empty empty 17 7 0 10 -262144 -1 -1 0
1;
#X obj 392 11 tgl 30 0 empty empty empty 17 7 0 10 -262144 -1 -1 0
1;
#X obj 491 11 tgl 30 0 empty empty empty 17 7 0 10 -262144 -1 -1 0
1;
#X obj 458 11 tgl 30 0 empty empty empty 17 7 0 10 -262144 -1 -1 0
1;
#X obj 557 11 tgl 30 0 empty empty empty 17 7 0 10 -262144 -1 -1 0
1;
#X obj 524 11 tgl 30 0 empty empty empty 17 7 0 10 -262144 -1 -1 0
1;
#X obj 623 11 tgl 30 0 empty empty empty 17 7 0 10 -262144 -1 -1 0
1;
#X obj 590 11 tgl 30 0 empty empty empty 17 7 0 10 -262144 -1 -1 0
1;
#X obj 689 11 tgl 30 0 empty empty empty 17 7 0 10 -262144 -1 -1 0
1;
#X obj 656 11 tgl 30 0 empty empty empty 17 7 0 10 -262144 -1 -1 0
1;
#X obj 755 11 tgl 30 0 empty empty empty 17 7 0 10 -262144 -1 -1 0
1;
#X obj 722 11 tgl 30 0 empty empty empty 17 7 0 10 -262144 -1 -1 0
1;
#X floatatom 296 85 4 0 0 0 - - -, f 4;
#X floatatom 329 85 4 0 0 0 - - -, f 4;
#X floatatom 362 85 4 0 0 0 - - -, f 4;
#X floatatom 395 85 4 0 0 0 - - -, f 4;
#X floatatom 428 85 4 0 0 0 - - -, f 4;
#X floatatom 461 85 4 0 0 0 - - -, f 4;
#X floatatom 494 85 4 0 0 0 - - -, f 4;
#X floatatom 527 85 4 0 0 0 - - -, f 4;
#X floatatom 561 85 4 0 0 0 - - -, f 4;
#X floatatom 593 85 4 0 0 0 - - -, f 4;
#X floatatom 626 85 4 0 0 0 - - -, f 4;
#X floatatom 659 85 4 0 0 0 - - -, f 4;
#X floatatom 692 85 4 0 0 0 - - -, f 4;
#X floatatom 725 85 4 0 0 0 - - -, f 4;
#X floatatom 758 85 4 0 0 0 - - -, f 4;
#X floatatom 263 85 4 0 0 0 - - -, f 4;
#X obj 259 241 hradio 33 1 0 16 empty empty empty 0 -8 0 10 -204786
-13381 -1 0;
#X obj 293 278 tgl 30 0 empty empty empty 17 7 0 10 -260566 -1 -1 0
1;
#X obj 260 278 tgl 30 0 empty empty Random\ steps -80 13 1 11 -260566
-1 -1 0 1;
#X obj 359 278 tgl 30 0 empty empty empty 17 7 0 10 -260566 -1 -1 0
1;
#X obj 326 278 tgl 30 0 empty empty empty 17 7 0 10 -260566 -1 -1 0
1;
#X obj 425 278 tgl 30 0 empty empty empty 17 7 0 10 -260566 -1 -1 0
1;
#X obj 392 278 tgl 30 0 empty empty empty 17 7 0 10 -260566 -1 -1 0
1;
#X obj 491 278 tgl 30 0 empty empty empty 17 7 0 10 -260566 -1 -1 0
1;
#X obj 458 278 tgl 30 0 empty empty empty 17 7 0 10 -260566 -1 -1 0
1;
#X obj 557 278 tgl 30 0 empty empty empty 17 7 0 10 -260566 -1 -1 0
1;
#X obj 524 278 tgl 30 0 empty empty empty 17 7 0 10 -260566 -1 -1 0
1;
#X obj 623 278 tgl 30 0 empty empty empty 17 7 0 10 -260566 -1 -1 0
1;
#X obj 590 278 tgl 30 0 empty empty empty 17 7 0 10 -260566 -1 -1 0
1;
#X obj 689 278 tgl 30 0 empty empty empty 17 7 0 10 -260566 -1 -1 0
1;
#X obj 656 278 tgl 30 0 empty empty empty 17 7 0 10 -260566 -1 -1 0
1;
#X obj 755 278 tgl 30 0 empty empty empty 17 7 0 10 -260566 -1 -1 0
1;
#X obj 722 278 tgl 30 0 empty empty empty 17 7 0 10 -260566 -1 -1 0
1;
#X obj 301 320 vradio 15 0 0 4 empty empty empty 0 -8 0 10 -262144
-1 -1 1;
#X obj 334 320 vradio 15 0 0 4 empty empty empty 0 -8 0 10 -262144
-1 -1 1;
#X obj 367 320 vradio 15 0 0 4 empty empty empty 0 -8 0 10 -262144
-1 -1 1;
#X obj 400 320 vradio 15 0 0 4 empty empty empty 0 -8 0 10 -262144
-1 -1 1;
#X obj 433 320 vradio 15 0 0 4 empty empty empty 0 -8 0 10 -262144
-1 -1 1;
#X obj 466 320 vradio 15 0 0 4 empty empty empty 0 -8 0 10 -262144
-1 -1 1;
#X obj 499 320 vradio 15 0 0 4 empty empty empty 0 -8 0 10 -262144
-1 -1 1;
#X obj 532 320 vradio 15 0 0 4 empty empty empty 0 -8 0 10 -262144
-1 -1 1;
#X obj 565 320 vradio 15 0 0 4 empty empty empty 0 -8 0 10 -262144
-1 -1 1;
#X obj 598 320 vradio 15 0 0 4 empty empty empty 0 -8 0 10 -262144
-1 -1 1;
#X obj 631 320 vradio 15 0 0 4 empty empty empty 0 -8 0 10 -262144
-1 -1 1;
#X obj 664 320 vradio 15 0 0 4 empty empty empty 0 -8 0 10 -262144
-1 -1 1;
#X obj 697 320 vradio 15 0 0 4 empty empty empty 0 -8 0 10 -262144
-1 -1 1;
#X obj 730 320 vradio 15 0 0 4 empty empty empty 0 -8 0 10 -262144
-1 -1 1;
#X obj 763 320 vradio 15 0 0 4 empty empty empty 0 -8 0 10 -262144
-1 -1 1;
#X obj 268 320 vradio 15 0 0 4 empty empty empty 0 -8 0 10 -262144
-1 -1 1;
#X obj 24 81 select 0;
#X msg 24 109 0;
#X connect 0 0 27 0;
#X connect 1 0 0 0;
#X connect 1 0 109 0;
#X connect 2 0 76 0;
#X connect 3 0 20 0;
#X connect 4 0 5 0;
#X connect 5 0 28 0;
#X connect 5 0 29 0;
#X connect 5 0 30 0;
#X connect 5 0 31 0;
#X connect 5 0 32 0;
#X connect 5 0 33 0;
#X connect 5 0 34 0;
#X connect 5 0 35 0;
#X connect 5 0 36 0;
#X connect 5 0 37 0;
#X connect 5 0 38 0;
#X connect 5 0 39 0;
#X connect 5 0 40 0;
#X connect 5 0 41 0;
#X connect 5 0 42 0;
#X connect 5 0 43 0;
#X connect 6 0 24 1;
#X connect 7 0 20 1;
#X connect 7 0 23 1;
#X connect 8 0 0 1;
#X connect 9 0 2 1;
#X connect 10 0 24 0;
#X connect 11 0 23 0;
#X connect 12 0 23 2;
#X connect 13 0 4 0;
#X connect 18 0 19 0;
#X connect 19 0 108 0;
#X connect 19 0 107 0;
#X connect 19 0 106 0;
#X connect 19 0 105 0;
#X connect 19 0 104 0;
#X connect 19 0 103 0;
#X connect 19 0 102 0;
#X connect 19 0 101 0;
#X connect 19 0 100 0;
#X connect 19 0 99 0;
#X connect 19 0 98 0;
#X connect 19 0 97 0;
#X connect 19 0 96 0;
#X connect 19 0 95 0;
#X connect 19 0 94 0;
#X connect 19 0 93 0;
#X connect 21 0 2 0;
#X connect 22 0 23 4;
#X connect 24 0 28 0;
#X connect 24 1 29 0;
#X connect 24 2 30 0;
#X connect 24 3 31 0;
#X connect 24 4 32 0;
#X connect 24 5 33 0;
#X connect 24 6 34 0;
#X connect 24 7 35 0;
#X connect 24 8 36 0;
#X connect 24 9 37 0;
#X connect 24 10 38 0;
#X connect 24 11 39 0;
#X connect 24 12 40 0;
#X connect 24 13 41 0;
#X connect 24 14 42 0;
#X connect 24 15 43 0;
#X connect 25 0 23 3;
#X connect 27 0 21 0;
#X connect 28 0 75 0;
#X connect 28 0 25 1;
#X connect 29 0 60 0;
#X connect 29 0 25 2;
#X connect 30 0 61 0;
#X connect 30 0 25 3;
#X connect 31 0 62 0;
#X connect 31 0 25 4;
#X connect 32 0 63 0;
#X connect 32 0 25 5;
#X connect 33 0 64 0;
#X connect 33 0 25 6;
#X connect 34 0 65 0;
#X connect 34 0 25 7;
#X connect 35 0 66 0;
#X connect 35 0 25 8;
#X connect 36 0 67 0;
#X connect 36 0 25 9;
#X connect 37 0 68 0;
#X connect 37 0 25 10;
#X connect 38 0 69 0;
#X connect 38 0 25 11;
#X connect 39 0 70 0;
#X connect 39 0 25 12;
#X connect 40 0 71 0;
#X connect 40 0 25 13;
#X connect 41 0 72 0;
#X connect 41 0 25 14;
#X connect 42 0 73 0;
#X connect 42 0 25 15;
#X connect 43 0 74 0;
#X connect 43 0 25 16;
#X connect 44 0 21 2;
#X connect 45 0 21 1;
#X connect 46 0 21 4;
#X connect 47 0 21 3;
#X connect 48 0 21 6;
#X connect 49 0 21 5;
#X connect 50 0 21 8;
#X connect 51 0 21 7;
#X connect 52 0 21 10;
#X connect 53 0 21 9;
#X connect 54 0 21 12;
#X connect 55 0 21 11;
#X connect 56 0 21 14;
#X connect 57 0 21 13;
#X connect 58 0 21 16;
#X connect 59 0 21 15;
#X connect 76 0 22 0;
#X connect 76 0 25 0;
#X connect 76 0 24 2;
#X connect 77 0 24 4;
#X connect 78 0 24 3;
#X connect 79 0 24 6;
#X connect 80 0 24 5;
#X connect 81 0 24 8;
#X connect 82 0 24 7;
#X connect 83 0 24 10;
#X connect 84 0 24 9;
#X connect 85 0 24 12;
#X connect 86 0 24 11;
#X connect 87 0 24 14;
#X connect 88 0 24 13;
#X connect 89 0 24 16;
#X connect 90 0 24 15;
#X connect 91 0 24 18;
#X connect 92 0 24 17;
#X connect 93 0 22 2;
#X connect 94 0 22 3;
#X connect 95 0 22 4;
#X connect 96 0 22 5;
#X connect 97 0 22 6;
#X connect 98 0 22 7;
#X connect 99 0 22 8;
#X connect 100 0 22 9;
#X connect 101 0 22 10;
#X connect 102 0 22 11;
#X connect 103 0 22 12;
#X connect 104 0 22 13;
#X connect 105 0 22 14;
#X connect 106 0 22 15;
#X connect 107 0 22 16;
#X connect 108 0 22 1;
#X connect 109 0 110 0;
#X connect 110 0 2 0;
#X coords 0 -1 1 1 681 390 2 115 1;
#X restore 698 6 pd SEQ1 Rel;
#N canvas 3 59 1272 743 SEQ1 0;
#X obj 36 37 mod 16;
#X floatatom 36 11 5 0 0 0 - #0-sync -, f 5;
#X obj 24 178 mod 16;
#X obj 206 191 bng 15 250 50 0 empty empty Panic -43 9 0 12 -258113
-1 -1;
#X obj 206 167 bng 15 250 50 0 empty empty Reset_64 -52 8 0 10 -260097
-1 -1;
#X msg 1024 89 64;
#X obj 206 94 bng 15 250 50 0 empty empty random -45 7 1 11 -261682
-1 -1;
#X obj 205 8 nbx 2 14 1 16 0 1 empty empty Midi_Channel -80 8 1 11
-260097 -1 -1 9 256 0;
#X obj 206 61 nbx 2 14 1 16 0 1 empty empty Steps -38 7 1 11 -204800
-1 -1 16 256 0;
#X obj 206 253 nbx 2 14 1 16 0 1 empty empty Steps -38 7 1 11 -204800
-1 -1 16 256 0;
#X obj 206 116 nbx 2 14 1 10 0 1 empty empty Octaves -48 7 1 11 -261682
-1 -1 3 256 0;
#X obj 172 137 hradio 15 1 1 5 empty empty Transp -42 8 1 11 -262144
-1 -1 1;
#X obj 206 32 tgl 15 0 empty empty Slave -35 8 1 11 -262144 -1 -1 0
1;
#X obj 36 62 loadbang;
#X text 210 320 80ms;
#X text 210 335 160ms;
#X text 210 350 240ms;
#X text 210 365 320ms;
#X obj 36 277 loadbang;
#X msg 36 303 1;
#N canvas 1358 546 450 433 panic 0;
#X obj 134 313 ctlout;
#X msg 134 289 123 123 \$1;
#X obj 195 172 until;
#X obj 195 194 f 0;
#X obj 226 194 + 1;
#X obj 195 217 t f b;
#X msg 223 238 0;
#X msg 195 147 128;
#X obj 195 260 noteout \$1;
#X obj 134 123 t f b b f;
#X msg 227 146 0;
#X obj 134 85 \$1;
#X obj 88 31 inlet;
#X obj 172 30 inlet;
#X connect 1 0 0 0;
#X connect 2 0 3 0;
#X connect 3 0 4 0;
#X connect 3 0 5 0;
#X connect 4 0 3 1;
#X connect 5 0 8 0;
#X connect 5 1 6 0;
#X connect 6 0 8 1;
#X connect 7 0 2 0;
#X connect 9 0 1 0;
#X connect 9 1 7 0;
#X connect 9 2 10 0;
#X connect 9 3 8 2;
#X connect 10 0 3 1;
#X connect 11 0 9 0;
#X connect 12 0 11 0;
#X connect 13 0 11 1;
#X restore 36 206 pd panic;
#N canvas 1136 330 781 551 mainsteps 0;
#X obj 185 137 select 0 1 2 3 4 5 6 7 8 9 10 11 12 13 14 15;
#X obj 130 204 spigot;
#X obj 97 178 spigot;
#X obj 196 204 spigot;
#X obj 163 178 spigot;
#X obj 262 204 spigot;
#X obj 229 178 spigot;
#X obj 328 204 spigot;
#X obj 295 178 spigot;
#X obj 394 204 spigot;
#X obj 361 178 spigot;
#X obj 460 204 spigot;
#X obj 427 178 spigot;
#X obj 526 204 spigot;
#X obj 493 178 spigot;
#X obj 592 204 spigot;
#X obj 559 178 spigot;
#X obj 283 360 + 1;
#X obj 343 360 f;
#X obj 124 56 inlet;
#X obj 162 56 inlet;
#X obj 200 56 inlet;
#X obj 238 56 inlet;
#X obj 276 56 inlet;
#X obj 314 56 inlet;
#X obj 352 56 inlet;
#X obj 390 56 inlet;
#X obj 428 56 inlet;
#X obj 466 56 inlet;
#X obj 504 56 inlet;
#X obj 542 56 inlet;
#X obj 580 56 inlet;
#X obj 618 56 inlet;
#X obj 656 56 inlet;
#X obj 694 56 inlet;
#X obj 76 56 inlet;
#X obj 233 435 outlet;
#X floatatom 114 302 5 0 0 0 - #0-sync -, f 5;
#X obj 114 328 select 0;
#X msg 134 357 -1;
#X connect 0 0 2 0;
#X connect 0 1 1 0;
#X connect 0 2 4 0;
#X connect 0 3 3 0;
#X connect 0 4 6 0;
#X connect 0 5 5 0;
#X connect 0 6 8 0;
#X connect 0 7 7 0;
#X connect 0 8 10 0;
#X connect 0 9 9 0;
#X connect 0 10 12 0;
#X connect 0 11 11 0;
#X connect 0 12 14 0;
#X connect 0 13 13 0;
#X connect 0 14 16 0;
#X connect 0 15 15 0;
#X connect 1 0 18 0;
#X connect 2 0 18 0;
#X connect 3 0 18 0;
#X connect 4 0 18 0;
#X connect 5 0 18 0;
#X connect 6 0 18 0;
#X connect 7 0 18 0;
#X connect 8 0 18 0;
#X connect 9 0 18 0;
#X connect 10 0 18 0;
#X connect 11 0 18 0;
#X connect 12 0 18 0;
#X connect 13 0 18 0;
#X connect 14 0 18 0;
#X connect 15 0 18 0;
#X connect 16 0 18 0;
#X connect 17 0 18 1;
#X connect 18 0 17 0;
#X connect 18 0 36 0;
#X connect 19 0 2 1;
#X connect 20 0 1 1;
#X connect 21 0 4 1;
#X connect 22 0 3 1;
#X connect 23 0 6 1;
#X connect 24 0 5 1;
#X connect 25 0 8 1;
#X connect 26 0 7 1;
#X connect 27 0 10 1;
#X connect 28 0 9 1;
#X connect 29 0 12 1;
#X connect 30 0 11 1;
#X connect 31 0 14 1;
#X connect 32 0 13 1;
#X connect 33 0 16 1;
#X connect 34 0 15 1;
#X connect 35 0 0 0;
#X connect 37 0 38 0;
#X connect 38 0 39 0;
#X connect 39 0 18 0;
#X restore 956 45 pd mainsteps;
#N canvas 314 341 917 603 gatetime 0;
#X obj 206 246 + 1;
#X obj 239 246 + 1;
#X obj 272 246 + 1;
#X obj 305 246 + 1;
#X obj 338 246 + 1;
#X obj 371 246 + 1;
#X obj 404 246 + 1;
#X obj 437 246 + 1;
#X obj 470 246 + 1;
#X obj 503 246 + 1;
#X obj 536 246 + 1;
#X obj 569 246 + 1;
#X obj 602 246 + 1;
#X obj 635 246 + 1;
#X obj 668 246 + 1;
#X obj 701 246 + 1;
#X obj 206 275 * 80;
#X obj 239 275 * 80;
#X obj 272 274 * 80;
#X obj 305 275 * 80;
#X obj 338 275 * 80;
#X obj 371 275 * 80;
#X obj 404 275 * 80;
#X obj 437 275 * 80;
#X obj 470 275 * 80;
#X obj 503 275 * 80;
#X obj 536 275 * 80;
#X obj 569 275 * 80;
#X obj 602 275 * 80;
#X obj 635 275 * 80;
#X obj 668 275 * 80;
#X obj 701 275 * 80;
#X obj 209 312 i;
#X obj 239 312 i;
#X obj 270 312 i;
#X obj 304 312 i;
#X obj 336 312 i;
#X obj 369 312 i;
#X obj 402 312 i;
#X obj 435 312 i;
#X obj 468 312 i;
#X obj 501 312 i;
#X obj 534 312 i;
#X obj 567 312 i;
#X obj 600 312 i;
#X obj 633 312 i;
#X obj 666 312 i;
#X obj 699 312 i;
#X obj 799 295 select 0 1 2 3 4 5 6 7 8 9 10 11 12 13 14 15;
#X obj 117 202 inlet;
#X obj 168 202 inlet;
#X obj 206 202 inlet;
#X obj 244 202 inlet;
#X obj 282 202 inlet;
#X obj 320 202 inlet;
#X obj 358 202 inlet;
#X obj 396 202 inlet;
#X obj 434 202 inlet;
#X obj 472 202 inlet;
#X obj 510 202 inlet;
#X obj 548 202 inlet;
#X obj 586 202 inlet;
#X obj 624 202 inlet;
#X obj 662 202 inlet;
#X obj 700 202 inlet;
#X obj 738 202 inlet;
#X obj 442 456 outlet;
#X connect 0 0 16 0;
#X connect 1 0 17 0;
#X connect 2 0 18 0;
#X connect 3 0 19 0;
#X connect 4 0 20 0;
#X connect 5 0 21 0;
#X connect 6 0 22 0;
#X connect 7 0 23 0;
#X connect 8 0 24 0;
#X connect 9 0 25 0;
#X connect 10 0 26 0;
#X connect 11 0 27 0;
#X connect 12 0 28 0;
#X connect 13 0 29 0;
#X connect 14 0 30 0;
#X connect 15 0 31 0;
#X connect 16 0 32 1;
#X connect 17 0 33 1;
#X connect 18 0 34 1;
#X connect 19 0 35 1;
#X connect 20 0 36 1;
#X connect 21 0 37 1;
#X connect 22 0 38 1;
#X connect 23 0 39 1;
#X connect 24 0 40 1;
#X connect 25 0 41 1;
#X connect 26 0 42 1;
#X connect 27 0 43 1;
#X connect 28 0 44 1;
#X connect 29 0 45 1;
#X connect 30 0 46 1;
#X connect 31 0 47 1;
#X connect 32 0 66 0;
#X connect 33 0 66 0;
#X connect 34 0 66 0;
#X connect 35 0 66 0;
#X connect 36 0 66 0;
#X connect 37 0 66 0;
#X connect 38 0 66 0;
#X connect 39 0 66 0;
#X connect 40 0 66 0;
#X connect 41 0 66 0;
#X connect 42 0 66 0;
#X connect 43 0 66 0;
#X connect 44 0 66 0;
#X connect 45 0 66 0;
#X connect 46 0 66 0;
#X connect 47 0 66 0;
#X connect 48 0 32 0;
#X connect 48 1 33 0;
#X connect 48 2 34 0;
#X connect 48 3 35 0;
#X connect 48 4 36 0;
#X connect 48 5 37 0;
#X connect 48 6 38 0;
#X connect 48 7 39 0;
#X connect 48 8 40 0;
#X connect 48 9 41 0;
#X connect 48 10 42 0;
#X connect 48 11 43 0;
#X connect 48 12 44 0;
#X connect 48 13 45 0;
#X connect 48 14 46 0;
#X connect 48 15 47 0;
#X connect 49 0 48 0;
#X connect 50 0 0 0;
#X connect 51 0 1 0;
#X connect 52 0 2 0;
#X connect 53 0 3 0;
#X connect 54 0 4 0;
#X connect 55 0 5 0;
#X connect 56 0 6 0;
#X connect 57 0 7 0;
#X connect 58 0 8 0;
#X connect 59 0 9 0;
#X connect 60 0 10 0;
#X connect 61 0 11 0;
#X connect 62 0 12 0;
#X connect 63 0 13 0;
#X connect 64 0 14 0;
#X connect 65 0 15 0;
#X restore 409 567 pd gatetime;
#N canvas 1267 324 653 722 notegenerator 0;
#X obj 214 547 noteout;
#X obj 311 322 * 12;
#X obj 311 297 int;
#X obj 311 273 / 12;
#X obj 249 285 % 12;
#X obj 396 312 r \$0-scale;
#X msg 396 342 set \$1;
#X obj 187 309 - 2;
#X obj 172 434 moses 0;
#X obj 187 367 + \$1;
#X obj 172 403 moses 127;
#X obj 261 387 tabread off-harmonic;
#X obj 265 422 + \$1;
#X obj 187 332 * 12;
#X obj 239 243 + \$1;
#X obj 343 4 r \$0-shift1;
#X obj 296 176 spigot;
#X obj 39 68 inlet;
#X obj 95 68 inlet;
#X obj 146 68 inlet;
#X obj 196 68 inlet;
#X obj 248 68 inlet;
#X text 31 46 transp;
#X text 88 47 channel;
#X text 142 47 slave;
#X text 193 47 notes;
#X text 241 47 gatetime;
#X obj 155 146 select 0;
#X msg 155 170 0;
#X obj 212 471 makenote 127 40;
#X connect 1 0 12 0;
#X connect 2 0 1 0;
#X connect 3 0 2 0;
#X connect 4 0 11 0;
#X connect 5 0 6 0;
#X connect 6 0 11 0;
#X connect 7 0 13 0;
#X connect 8 1 29 0;
#X connect 9 0 10 0;
#X connect 10 0 8 0;
#X connect 11 0 12 1;
#X connect 12 0 9 0;
#X connect 13 0 9 1;
#X connect 14 0 4 0;
#X connect 14 0 3 0;
#X connect 15 0 16 0;
#X connect 16 0 14 1;
#X connect 17 0 7 0;
#X connect 18 0 0 2;
#X connect 19 0 16 1;
#X connect 19 0 27 0;
#X connect 20 0 14 0;
#X connect 21 0 29 2;
#X connect 27 0 28 0;
#X connect 28 0 14 1;
#X connect 29 0 0 0;
#X connect 29 1 0 1;
#X restore 142 463 pd notegenerator;
#N canvas 374 247 1044 710 randomizer 0;
#X obj 73 315 random 12;
#X obj 73 341 - 6;
#X obj 73 366 * \$1;
#X obj 73 391 + 64;
#X obj 146 315 random 12;
#X obj 146 341 - 6;
#X obj 146 366 * \$1;
#X obj 146 391 + 64;
#X obj 219 315 random 12;
#X obj 219 341 - 6;
#X obj 219 366 * \$1;
#X obj 219 391 + 64;
#X obj 292 315 random 12;
#X obj 292 341 - 6;
#X obj 292 366 * \$1;
#X obj 292 391 + 64;
#X obj 365 315 random 12;
#X obj 365 341 - 6;
#X obj 365 366 * \$1;
#X obj 365 391 + 64;
#X obj 438 315 random 12;
#X obj 438 341 - 6;
#X obj 438 366 * \$1;
#X obj 438 391 + 64;
#X obj 511 315 random 12;
#X obj 511 341 - 6;
#X obj 511 366 * \$1;
#X obj 511 391 + 64;
#X obj 584 315 random 12;
#X obj 584 341 - 6;
#X obj 584 366 * \$1;
#X obj 584 391 + 64;
#X obj 67 433 random 12;
#X obj 67 460 - 6;
#X obj 67 485 * \$1;
#X obj 67 510 + 64;
#X obj 140 433 random 12;
#X obj 140 459 - 6;
#X obj 140 484 * \$1;
#X obj 140 509 + 64;
#X obj 213 433 random 12;
#X obj 213 459 - 6;
#X obj 213 484 * \$1;
#X obj 213 509 + 64;
#X obj 286 433 random 12;
#X obj 286 459 - 6;
#X obj 286 484 * \$1;
#X obj 286 509 + 64;
#X obj 359 433 random 12;
#X obj 359 459 - 6;
#X obj 359 484 * \$1;
#X obj 359 509 + 64;
#X obj 432 433 random 12;
#X obj 432 459 - 6;
#X obj 432 484 * \$1;
#X obj 432 509 + 64;
#X obj 505 433 random 12;
#X obj 505 459 - 6;
#X obj 505 484 * \$1;
#X obj 505 509 + 64;
#X obj 578 433 random 12;
#X obj 578 459 - 6;
#X obj 578 484 * \$1;
#X obj 578 509 + 64;
#X floatatom 124 215 5 1 10 0 octave - -, f 5;
#X obj 97 37 inlet;
#X text 90 18 rndbang;
#X obj 28 37 inlet;
#X text 24 15 rndoctv;
#X obj 550 117 select 0 1 2 3 4 5 6 7 8 9 10 11 12 13 14 15;
#X obj 164 38 inlet;
#X text 163 17 steps;
#X obj 473 228 spigot;
#X obj 440 202 spigot;
#X obj 539 228 spigot;
#X obj 506 202 spigot;
#X obj 605 228 spigot;
#X obj 572 202 spigot;
#X obj 671 228 spigot;
#X obj 638 202 spigot;
#X obj 737 228 spigot;
#X obj 704 202 spigot;
#X obj 803 228 spigot;
#X obj 770 202 spigot;
#X obj 869 228 spigot;
#X obj 836 202 spigot;
#X obj 935 228 spigot;
#X obj 902 202 spigot;
#X obj 238 37 inlet;
#X obj 277 37 inlet;
#X obj 316 37 inlet;
#X obj 355 37 inlet;
#X obj 394 37 inlet;
#X obj 433 37 inlet;
#X obj 472 37 inlet;
#X obj 511 37 inlet;
#X obj 550 37 inlet;
#X obj 589 37 inlet;
#X obj 628 37 inlet;
#X obj 667 37 inlet;
#X obj 706 37 inlet;
#X obj 745 37 inlet;
#X obj 784 37 inlet;
#X obj 823 37 inlet;
#X obj 3 590 outlet;
#X obj 48 590 outlet;
#X obj 93 590 outlet;
#X obj 138 590 outlet;
#X obj 183 590 outlet;
#X obj 228 590 outlet;
#X obj 273 590 outlet;
#X obj 318 590 outlet;
#X obj 363 590 outlet;
#X obj 408 590 outlet;
#X obj 453 590 outlet;
#X obj 498 590 outlet;
#X obj 543 590 outlet;
#X obj 588 590 outlet;
#X obj 633 590 outlet;
#X obj 678 590 outlet;
#X connect 0 0 1 0;
#X connect 1 0 2 0;
#X connect 2 0 3 0;
#X connect 3 0 104 0;
#X connect 4 0 5 0;
#X connect 5 0 6 0;
#X connect 6 0 7 0;
#X connect 7 0 105 0;
#X connect 8 0 9 0;
#X connect 9 0 10 0;
#X connect 10 0 11 0;
#X connect 11 0 106 0;
#X connect 12 0 13 0;
#X connect 13 0 14 0;
#X connect 14 0 15 0;
#X connect 15 0 107 0;
#X connect 16 0 17 0;
#X connect 17 0 18 0;
#X connect 18 0 19 0;
#X connect 19 0 108 0;
#X connect 20 0 21 0;
#X connect 21 0 22 0;
#X connect 22 0 23 0;
#X connect 23 0 109 0;
#X connect 24 0 25 0;
#X connect 25 0 26 0;
#X connect 26 0 27 0;
#X connect 27 0 110 0;
#X connect 28 0 29 0;
#X connect 29 0 30 0;
#X connect 30 0 31 0;
#X connect 31 0 111 0;
#X connect 32 0 33 0;
#X connect 33 0 34 0;
#X connect 34 0 35 0;
#X connect 35 0 112 0;
#X connect 36 0 37 0;
#X connect 37 0 38 0;
#X connect 38 0 39 0;
#X connect 39 0 113 0;
#X connect 40 0 41 0;
#X connect 41 0 42 0;
#X connect 42 0 43 0;
#X connect 43 0 114 0;
#X connect 44 0 45 0;
#X connect 45 0 46 0;
#X connect 46 0 47 0;
#X connect 47 0 115 0;
#X connect 48 0 49 0;
#X connect 49 0 50 0;
#X connect 50 0 51 0;
#X connect 51 0 116 0;
#X connect 52 0 53 0;
#X connect 53 0 54 0;
#X connect 54 0 55 0;
#X connect 55 0 117 0;
#X connect 56 0 57 0;
#X connect 57 0 58 0;
#X connect 58 0 59 0;
#X connect 59 0 118 0;
#X connect 60 0 61 0;
#X connect 61 0 62 0;
#X connect 62 0 63 0;
#X connect 63 0 119 0;
#X connect 64 0 2 1;
#X connect 64 0 6 1;
#X connect 64 0 10 1;
#X connect 64 0 14 1;
#X connect 64 0 18 1;
#X connect 64 0 22 1;
#X connect 64 0 26 1;
#X connect 64 0 30 1;
#X connect 64 0 34 1;
#X connect 64 0 38 1;
#X connect 64 0 42 1;
#X connect 64 0 46 1;
#X connect 64 0 50 1;
#X connect 64 0 54 1;
#X connect 64 0 58 1;
#X connect 64 0 62 1;
#X connect 65 0 0 0;
#X connect 65 0 4 0;
#X connect 65 0 8 0;
#X connect 65 0 12 0;
#X connect 65 0 16 0;
#X connect 65 0 20 0;
#X connect 65 0 24 0;
#X connect 65 0 28 0;
#X connect 65 0 32 0;
#X connect 65 0 36 0;
#X connect 65 0 40 0;
#X connect 65 0 44 0;
#X connect 65 0 48 0;
#X connect 65 0 52 0;
#X connect 65 0 56 0;
#X connect 65 0 60 0;
#X connect 67 0 64 0;
#X connect 69 0 73 0;
#X connect 69 1 72 0;
#X connect 69 2 75 0;
#X connect 69 3 74 0;
#X connect 69 4 77 0;
#X connect 69 5 76 0;
#X connect 69 6 79 0;
#X connect 69 7 78 0;
#X connect 69 8 81 0;
#X connect 69 9 80 0;
#X connect 69 10 83 0;
#X connect 69 11 82 0;
#X connect 69 12 85 0;
#X connect 69 13 84 0;
#X connect 69 14 87 0;
#X connect 69 15 86 0;
#X connect 70 0 69 0;
#X connect 72 0 4 0;
#X connect 73 0 0 0;
#X connect 74 0 12 0;
#X connect 75 0 8 0;
#X connect 76 0 20 0;
#X connect 77 0 16 0;
#X connect 78 0 28 0;
#X connect 79 0 24 0;
#X connect 80 0 36 0;
#X connect 81 0 32 0;
#X connect 82 0 44 0;
#X connect 83 0 40 0;
#X connect 84 0 52 0;
#X connect 85 0 48 0;
#X connect 86 0 60 0;
#X connect 87 0 56 0;
#X connect 88 0 73 1;
#X connect 89 0 72 1;
#X connect 90 0 75 1;
#X connect 91 0 74 1;
#X connect 92 0 77 1;
#X connect 93 0 76 1;
#X connect 94 0 79 1;
#X connect 95 0 78 1;
#X connect 96 0 81 1;
#X connect 97 0 80 1;
#X connect 98 0 83 1;
#X connect 99 0 82 1;
#X connect 100 0 85 1;
#X connect 101 0 84 1;
#X connect 102 0 87 1;
#X connect 103 0 86 1;
#X restore 902 177 pd randomizer;
#N canvas 1025 541 861 465 noteselect 0;
#X obj 262 125 select 0 1 2 3 4 5 6 7 8 9 10 11 12 13 14 15;
#X obj 149 223 f;
#X obj 179 224 f;
#X obj 210 224 f;
#X obj 243 224 f;
#X obj 276 224 f;
#X obj 309 224 f;
#X obj 342 224 f;
#X obj 375 224 f;
#X obj 408 224 f;
#X obj 441 224 f;
#X obj 474 224 f;
#X obj 507 224 f;
#X obj 540 224 f;
#X obj 573 224 f;
#X obj 606 224 f;
#X obj 639 224 f;
#X obj 59 57 inlet;
#X obj 399 320 outlet;
#X obj 160 60 inlet;
#X obj 197 60 inlet;
#X obj 234 60 inlet;
#X obj 271 60 inlet;
#X obj 308 60 inlet;
#X obj 345 60 inlet;
#X obj 382 60 inlet;
#X obj 419 60 inlet;
#X obj 456 60 inlet;
#X obj 493 60 inlet;
#X obj 530 60 inlet;
#X obj 567 60 inlet;
#X obj 604 60 inlet;
#X obj 641 60 inlet;
#X obj 678 60 inlet;
#X obj 715 60 inlet;
#X connect 0 0 1 0;
#X connect 0 1 2 0;
#X connect 0 2 3 0;
#X connect 0 3 4 0;
#X connect 0 4 5 0;
#X connect 0 5 6 0;
#X connect 0 6 7 0;
#X connect 0 7 8 0;
#X connect 0 8 9 0;
#X connect 0 9 10 0;
#X connect 0 10 11 0;
#X connect 0 11 12 0;
#X connect 0 12 13 0;
#X connect 0 13 14 0;
#X connect 0 14 15 0;
#X connect 0 15 16 0;
#X connect 1 0 18 0;
#X connect 2 0 18 0;
#X connect 3 0 18 0;
#X connect 4 0 18 0;
#X connect 5 0 18 0;
#X connect 6 0 18 0;
#X connect 7 0 18 0;
#X connect 8 0 18 0;
#X connect 9 0 18 0;
#X connect 10 0 18 0;
#X connect 11 0 18 0;
#X connect 12 0 18 0;
#X connect 13 0 18 0;
#X connect 14 0 18 0;
#X connect 15 0 18 0;
#X connect 16 0 18 0;
#X connect 17 0 0 0;
#X connect 19 0 1 1;
#X connect 20 0 2 1;
#X connect 21 0 3 1;
#X connect 22 0 4 1;
#X connect 23 0 5 1;
#X connect 24 0 6 1;
#X connect 25 0 7 1;
#X connect 26 0 8 1;
#X connect 27 0 9 1;
#X connect 28 0 10 1;
#X connect 29 0 11 1;
#X connect 30 0 12 1;
#X connect 31 0 13 1;
#X connect 32 0 14 1;
#X connect 33 0 15 1;
#X connect 34 0 16 1;
#X restore 211 415 pd noteselect;
#X obj 254 6 cnv 15 538 379 empty empty empty 20 12 0 14 -132949 -66577
0;
#X obj 259 45 hradio 33 1 0 16 empty empty empty 0 -8 0 10 -204786
-13381 -1 12;
#X obj 260 106 vsl 30 128 0 127 0 0 empty empty empty 0 -9 0 10 -232576
-1 -1 6400 1;
#X obj 293 106 vsl 30 128 0 127 0 0 empty empty empty 0 -9 0 10 -232576
-1 -1 6400 1;
#X obj 326 106 vsl 30 128 0 127 0 0 empty empty empty 0 -9 0 10 -232576
-1 -1 6400 1;
#X obj 359 106 vsl 30 128 0 127 0 0 empty empty empty 0 -9 0 10 -232576
-1 -1 6400 1;
#X obj 392 106 vsl 30 128 0 127 0 0 empty empty empty 0 -9 0 10 -203904
-1 -1 6400 1;
#X obj 425 106 vsl 30 128 0 127 0 0 empty empty empty 0 -9 0 10 -203904
-1 -1 6400 1;
#X obj 458 106 vsl 30 128 0 127 0 0 empty empty empty 0 -9 0 10 -203904
-1 -1 6400 1;
#X obj 491 106 vsl 30 128 0 127 0 0 empty empty empty 0 -9 0 10 -203904
-1 -1 6400 1;
#X obj 524 106 vsl 30 128 0 127 0 0 empty empty empty 0 -9 0 10 -232576
-1 -1 6400 1;
#X obj 557 106 vsl 30 128 0 127 0 0 empty empty empty 0 -9 0 10 -232576
-1 -1 6400 1;
#X obj 590 106 vsl 30 128 0 127 0 0 empty empty empty 0 -9 0 10 -232576
-1 -1 6400 1;
#X obj 623 106 vsl 30 128 0 127 0 0 empty empty empty 0 -9 0 10 -232576
-1 -1 6400 1;
#X obj 656 106 vsl 30 128 0 127 0 0 empty empty empty 0 -9 0 10 -203904
-1 -1 6400 1;
#X obj 689 106 vsl 30 128 0 127 0 0 empty empty empty 0 -9 0 10 -203904
-1 -1 6400 1;
#X obj 722 106 vsl 30 128 0 127 0 0 empty empty empty 0 -9 0 10 -203904
-1 -1 6400 1;
#X obj 755 106 vsl 30 128 0 127 0 0 empty empty empty 0 -9 0 10 -203904
-1 -1 6400 1;
#X obj 293 11 tgl 30 0 empty empty empty 17 7 0 10 -262144 -1 -1 0
1;
#X obj 260 11 tgl 30 0 empty empty empty 17 7 0 10 -262144 -1 -1 0
1;
#X obj 359 11 tgl 30 0 empty empty empty 17 7 0 10 -262144 -1 -1 0
1;
#X obj 326 11 tgl 30 0 empty empty empty 17 7 0 10 -262144 -1 -1 0
1;
#X obj 425 11 tgl 30 0 empty empty empty 17 7 0 10 -262144 -1 -1 0
1;
#X obj 392 11 tgl 30 0 empty empty empty 17 7 0 10 -262144 -1 -1 0
1;
#X obj 491 11 tgl 30 0 empty empty empty 17 7 0 10 -262144 -1 -1 0
1;
#X obj 458 11 tgl 30 0 empty empty empty 17 7 0 10 -262144 -1 -1 0
1;
#X obj 557 11 tgl 30 0 empty empty empty 17 7 0 10 -262144 -1 -1 0
1;
#X obj 524 11 tgl 30 0 empty empty empty 17 7 0 10 -262144 -1 -1 0
1;
#X obj 623 11 tgl 30 0 empty empty empty 17 7 0 10 -262144 -1 -1 0
1;
#X obj 590 11 tgl 30 0 empty empty empty 17 7 0 10 -262144 -1 -1 0
1;
#X obj 689 11 tgl 30 0 empty empty empty 17 7 0 10 -262144 -1 -1 0
1;
#X obj 656 11 tgl 30 0 empty empty empty 17 7 0 10 -262144 -1 -1 0
1;
#X obj 755 11 tgl 30 0 empty empty empty 17 7 0 10 -262144 -1 -1 0
1;
#X obj 722 11 tgl 30 0 empty empty empty 17 7 0 10 -262144 -1 -1 0
1;
#X floatatom 296 85 4 0 0 0 - - -, f 4;
#X floatatom 329 85 4 0 0 0 - - -, f 4;
#X floatatom 362 85 4 0 0 0 - - -, f 4;
#X floatatom 395 85 4 0 0 0 - - -, f 4;
#X floatatom 428 85 4 0 0 0 - - -, f 4;
#X floatatom 461 85 4 0 0 0 - - -, f 4;
#X floatatom 494 85 4 0 0 0 - - -, f 4;
#X floatatom 527 85 4 0 0 0 - - -, f 4;
#X floatatom 561 85 4 0 0 0 - - -, f 4;
#X floatatom 593 85 4 0 0 0 - - -, f 4;
#X floatatom 626 85 4 0 0 0 - - -, f 4;
#X floatatom 659 85 4 0 0 0 - - -, f 4;
#X floatatom 692 85 4 0 0 0 - - -, f 4;
#X floatatom 725 85 4 0 0 0 - - -, f 4;
#X floatatom 758 85 4 0 0 0 - - -, f 4;
#X floatatom 263 85 4 0 0 0 - - -, f 4;
#X obj 259 241 hradio 33 1 0 16 empty empty empty 0 -8 0 10 -204786
-13381 -1 0;
#X obj 293 278 tgl 30 0 empty empty empty 17 7 0 10 -260566 -1 -1 0
1;
#X obj 260 278 tgl 30 0 empty empty Random\ steps -80 13 1 11 -260566
-1 -1 0 1;
#X obj 359 278 tgl 30 0 empty empty empty 17 7 0 10 -260566 -1 -1 0
1;
#X obj 326 278 tgl 30 0 empty empty empty 17 7 0 10 -260566 -1 -1 0
1;
#X obj 425 278 tgl 30 0 empty empty empty 17 7 0 10 -260566 -1 -1 0
1;
#X obj 392 278 tgl 30 0 empty empty empty 17 7 0 10 -260566 -1 -1 0
1;
#X obj 491 278 tgl 30 0 empty empty empty 17 7 0 10 -260566 -1 -1 0
1;
#X obj 458 278 tgl 30 0 empty empty empty 17 7 0 10 -260566 -1 -1 0
1;
#X obj 557 278 tgl 30 0 empty empty empty 17 7 0 10 -260566 -1 -1 0
1;
#X obj 524 278 tgl 30 0 empty empty empty 17 7 0 10 -260566 -1 -1 0
1;
#X obj 623 278 tgl 30 0 empty empty empty 17 7 0 10 -260566 -1 -1 0
1;
#X obj 590 278 tgl 30 0 empty empty empty 17 7 0 10 -260566 -1 -1 0
1;
#X obj 689 278 tgl 30 0 empty empty empty 17 7 0 10 -260566 -1 -1 0
1;
#X obj 656 278 tgl 30 0 empty empty empty 17 7 0 10 -260566 -1 -1 0
1;
#X obj 755 278 tgl 30 0 empty empty empty 17 7 0 10 -260566 -1 -1 0
1;
#X obj 722 278 tgl 30 0 empty empty empty 17 7 0 10 -260566 -1 -1 0
1;
#X obj 301 320 vradio 15 0 0 4 empty empty empty 0 -8 0 10 -262144
-1 -1 1;
#X obj 334 320 vradio 15 0 0 4 empty empty empty 0 -8 0 10 -262144
-1 -1 1;
#X obj 367 320 vradio 15 0 0 4 empty empty empty 0 -8 0 10 -262144
-1 -1 1;
#X obj 400 320 vradio 15 0 0 4 empty empty empty 0 -8 0 10 -262144
-1 -1 1;
#X obj 433 320 vradio 15 0 0 4 empty empty empty 0 -8 0 10 -262144
-1 -1 1;
#X obj 466 320 vradio 15 0 0 4 empty empty empty 0 -8 0 10 -262144
-1 -1 1;
#X obj 499 320 vradio 15 0 0 4 empty empty empty 0 -8 0 10 -262144
-1 -1 1;
#X obj 532 320 vradio 15 0 0 4 empty empty empty 0 -8 0 10 -262144
-1 -1 1;
#X obj 565 320 vradio 15 0 0 4 empty empty empty 0 -8 0 10 -262144
-1 -1 1;
#X obj 598 320 vradio 15 0 0 4 empty empty empty 0 -8 0 10 -262144
-1 -1 1;
#X obj 631 320 vradio 15 0 0 4 empty empty empty 0 -8 0 10 -262144
-1 -1 1;
#X obj 664 320 vradio 15 0 0 4 empty empty empty 0 -8 0 10 -262144
-1 -1 1;
#X obj 697 320 vradio 15 0 0 4 empty empty empty 0 -8 0 10 -262144
-1 -1 1;
#X obj 730 320 vradio 15 0 0 4 empty empty empty 0 -8 0 10 -262144
-1 -1 1;
#X obj 763 320 vradio 15 0 0 4 empty empty empty 0 -8 0 10 -262144
-1 -1 1;
#X obj 268 320 vradio 15 0 0 4 empty empty empty 0 -8 0 10 -262144
-1 -1 1;
#X obj 24 81 select 0;
#X msg 24 109 0;
#X connect 0 0 27 0;
#X connect 1 0 0 0;
#X connect 1 0 109 0;
#X connect 2 0 76 0;
#X connect 3 0 20 0;
#X connect 4 0 5 0;
#X connect 5 0 28 0;
#X connect 5 0 29 0;
#X connect 5 0 30 0;
#X connect 5 0 31 0;
#X connect 5 0 32 0;
#X connect 5 0 33 0;
#X connect 5 0 34 0;
#X connect 5 0 35 0;
#X connect 5 0 36 0;
#X connect 5 0 37 0;
#X connect 5 0 38 0;
#X connect 5 0 39 0;
#X connect 5 0 40 0;
#X connect 5 0 41 0;
#X connect 5 0 42 0;
#X connect 5 0 43 0;
#X connect 6 0 24 1;
#X connect 7 0 20 1;
#X connect 7 0 23 1;
#X connect 8 0 0 1;
#X connect 9 0 2 1;
#X connect 10 0 24 0;
#X connect 11 0 23 0;
#X connect 12 0 23 2;
#X connect 13 0 4 0;
#X connect 18 0 19 0;
#X connect 19 0 108 0;
#X connect 19 0 107 0;
#X connect 19 0 106 0;
#X connect 19 0 105 0;
#X connect 19 0 104 0;
#X connect 19 0 103 0;
#X connect 19 0 102 0;
#X connect 19 0 101 0;
#X connect 19 0 100 0;
#X connect 19 0 99 0;
#X connect 19 0 98 0;
#X connect 19 0 97 0;
#X connect 19 0 96 0;
#X connect 19 0 95 0;
#X connect 19 0 94 0;
#X connect 19 0 93 0;
#X connect 21 0 2 0;
#X connect 22 0 23 4;
#X connect 24 0 28 0;
#X connect 24 1 29 0;
#X connect 24 2 30 0;
#X connect 24 3 31 0;
#X connect 24 4 32 0;
#X connect 24 5 33 0;
#X connect 24 6 34 0;
#X connect 24 7 35 0;
#X connect 24 8 36 0;
#X connect 24 9 37 0;
#X connect 24 10 38 0;
#X connect 24 11 39 0;
#X connect 24 12 40 0;
#X connect 24 13 41 0;
#X connect 24 14 42 0;
#X connect 24 15 43 0;
#X connect 25 0 23 3;
#X connect 27 0 21 0;
#X connect 28 0 75 0;
#X connect 28 0 25 1;
#X connect 29 0 60 0;
#X connect 29 0 25 2;
#X connect 30 0 61 0;
#X connect 30 0 25 3;
#X connect 31 0 62 0;
#X connect 31 0 25 4;
#X connect 32 0 63 0;
#X connect 32 0 25 5;
#X connect 33 0 64 0;
#X connect 33 0 25 6;
#X connect 34 0 65 0;
#X connect 34 0 25 7;
#X connect 35 0 66 0;
#X connect 35 0 25 8;
#X connect 36 0 67 0;
#X connect 36 0 25 9;
#X connect 37 0 68 0;
#X connect 37 0 25 10;
#X connect 38 0 69 0;
#X connect 38 0 25 11;
#X connect 39 0 70 0;
#X connect 39 0 25 12;
#X connect 40 0 71 0;
#X connect 40 0 25 13;
#X connect 41 0 72 0;
#X connect 41 0 25 14;
#X connect 42 0 73 0;
#X connect 42 0 25 15;
#X connect 43 0 74 0;
#X connect 43 0 25 16;
#X connect 44 0 21 2;
#X connect 45 0 21 1;
#X connect 46 0 21 4;
#X connect 47 0 21 3;
#X connect 48 0 21 6;
#X connect 49 0 21 5;
#X connect 50 0 21 8;
#X connect 51 0 21 7;
#X connect 52 0 21 10;
#X connect 53 0 21 9;
#X connect 54 0 21 12;
#X connect 55 0 21 11;
#X connect 56 0 21 14;
#X connect 57 0 21 13;
#X connect 58 0 21 16;
#X connect 59 0 21 15;
#X connect 76 0 22 0;
#X connect 76 0 25 0;
#X connect 76 0 24 2;
#X connect 77 0 24 4;
#X connect 78 0 24 3;
#X connect 79 0 24 6;
#X connect 80 0 24 5;
#X connect 81 0 24 8;
#X connect 82 0 24 7;
#X connect 83 0 24 10;
#X connect 84 0 24 9;
#X connect 85 0 24 12;
#X connect 86 0 24 11;
#X connect 87 0 24 14;
#X connect 88 0 24 13;
#X connect 89 0 24 16;
#X connect 90 0 24 15;
#X connect 91 0 24 18;
#X connect 92 0 24 17;
#X connect 93 0 22 2;
#X connect 94 0 22 3;
#X connect 95 0 22 4;
#X connect 96 0 22 5;
#X connect 97 0 22 6;
#X connect 98 0 22 7;
#X connect 99 0 22 8;
#X connect 100 0 22 9;
#X connect 101 0 22 10;
#X connect 102 0 22 11;
#X connect 103 0 22 12;
#X connect 104 0 22 13;
#X connect 105 0 22 14;
#X connect 106 0 22 15;
#X connect 107 0 22 16;
#X connect 108 0 22 1;
#X connect 109 0 110 0;
#X connect 110 0 2 0;
#X coords 0 -1 1 1 681 390 2 115 1;
#X restore 698 403 pd SEQ1 Rel;
#X coords 0 0 1 1 106 17 0;
